<svg width="412" height="453" viewBox="0 0 412 453" fill="none" xmlns="http://www.w3.org/2000/svg">
<rect x="77.5" y="51.5" width="162" height="161" stroke="#FF7700" stroke-width="7"/>
<rect x="246.5" y="51.5" width="162" height="161" stroke="#FF7700" stroke-width="7"/>
<rect x="246.5" y="218.5" width="162" height="161" stroke="#FF7700" stroke-width="7"/>
<mask id="path-4-outside-1_350_45" maskUnits="userSpaceOnUse" x="100" y="89" width="113" height="94" fill="black">
<rect fill="white" x="100" y="89" width="113" height="94"/>
<path d="M150.062 134.812C150.062 144.354 149.542 152.188 148.5 158.312C147.458 164.396 145.833 169.188 143.625 172.688C141.458 176.188 138.75 178.604 135.5 179.938C132.25 181.229 128.479 181.875 124.188 181.875C121.729 181.875 119.188 181.854 116.562 181.812C113.979 181.771 111.583 181.667 109.375 181.5C108.083 181.417 106.812 181.333 105.562 181.25C104.354 181.167 103.146 181.083 101.938 181V91.375C103.104 91.2917 104.271 91.2083 105.438 91.125C106.604 91.0417 107.792 90.9583 109 90.875C111.042 90.7083 113.271 90.6042 115.688 90.5625C118.146 90.5208 120.479 90.5 122.688 90.5C127.188 90.5 131.146 91.0417 134.562 92.125C138.021 93.1667 140.896 95.2917 143.188 98.5C145.521 101.708 147.25 106.188 148.375 111.938C149.5 117.688 150.062 125.312 150.062 134.812ZM138.688 135.688C138.688 128.021 138.375 121.833 137.75 117.125C137.125 112.417 136.208 108.792 135 106.25C133.833 103.708 132.438 102.021 130.812 101.188C129.229 100.312 127.458 99.875 125.5 99.875C124.292 99.875 122.979 99.8958 121.562 99.9375C120.188 99.9792 118.854 100.042 117.562 100.125C116.771 100.167 116 100.208 115.25 100.25C114.5 100.292 113.771 100.333 113.062 100.375V172.062C113.729 172.104 114.396 172.146 115.062 172.188C115.771 172.229 116.479 172.271 117.188 172.312C118.354 172.396 119.667 172.458 121.125 172.5C122.583 172.542 124 172.562 125.375 172.562C127.333 172.562 129.146 171.958 130.812 170.75C132.479 169.542 133.896 167.5 135.062 164.625C136.188 161.792 137.062 158.021 137.688 153.312C138.354 148.562 138.688 142.688 138.688 135.688ZM211.312 171.625V181H169.312V91.375H211.312V100.75H180.438V130.062H208.125V139.375H180.438V171.625H211.312Z"/>
</mask>
<path d="M150.062 134.812C150.062 144.354 149.542 152.188 148.5 158.312C147.458 164.396 145.833 169.188 143.625 172.688C141.458 176.188 138.75 178.604 135.5 179.938C132.25 181.229 128.479 181.875 124.188 181.875C121.729 181.875 119.188 181.854 116.562 181.812C113.979 181.771 111.583 181.667 109.375 181.5C108.083 181.417 106.812 181.333 105.562 181.25C104.354 181.167 103.146 181.083 101.938 181V91.375C103.104 91.2917 104.271 91.2083 105.438 91.125C106.604 91.0417 107.792 90.9583 109 90.875C111.042 90.7083 113.271 90.6042 115.688 90.5625C118.146 90.5208 120.479 90.5 122.688 90.5C127.188 90.5 131.146 91.0417 134.562 92.125C138.021 93.1667 140.896 95.2917 143.188 98.5C145.521 101.708 147.25 106.188 148.375 111.938C149.5 117.688 150.062 125.312 150.062 134.812ZM138.688 135.688C138.688 128.021 138.375 121.833 137.75 117.125C137.125 112.417 136.208 108.792 135 106.25C133.833 103.708 132.438 102.021 130.812 101.188C129.229 100.312 127.458 99.875 125.5 99.875C124.292 99.875 122.979 99.8958 121.562 99.9375C120.188 99.9792 118.854 100.042 117.562 100.125C116.771 100.167 116 100.208 115.25 100.25C114.5 100.292 113.771 100.333 113.062 100.375V172.062C113.729 172.104 114.396 172.146 115.062 172.188C115.771 172.229 116.479 172.271 117.188 172.312C118.354 172.396 119.667 172.458 121.125 172.5C122.583 172.542 124 172.562 125.375 172.562C127.333 172.562 129.146 171.958 130.812 170.75C132.479 169.542 133.896 167.5 135.062 164.625C136.188 161.792 137.062 158.021 137.688 153.312C138.354 148.562 138.688 142.688 138.688 135.688ZM211.312 171.625V181H169.312V91.375H211.312V100.75H180.438V130.062H208.125V139.375H180.438V171.625H211.312Z" fill="white"/>
<path d="M148.5 158.312L149.486 158.481L149.486 158.48L148.5 158.312ZM143.625 172.688L142.779 172.154L142.775 172.161L143.625 172.688ZM135.5 179.938L135.869 180.867L135.88 180.863L135.5 179.938ZM116.562 181.812L116.546 182.812L116.547 182.812L116.562 181.812ZM109.375 181.5L109.45 180.503L109.439 180.502L109.375 181.5ZM105.562 181.25L105.494 182.248L105.496 182.248L105.562 181.25ZM101.938 181H100.938V181.933L101.869 181.998L101.938 181ZM101.938 91.375L101.866 90.3775L100.938 90.4439V91.375H101.938ZM109 90.875L109.069 91.8727L109.081 91.8717L109 90.875ZM115.688 90.5625L115.671 89.5626L115.67 89.5626L115.688 90.5625ZM134.562 92.125L134.26 93.0782L134.267 93.0804L134.274 93.0825L134.562 92.125ZM143.188 98.5L142.374 99.0813L142.379 99.0882L143.188 98.5ZM135 106.25L134.091 106.667L134.097 106.679L135 106.25ZM130.812 101.188L130.329 102.063L130.342 102.07L130.356 102.077L130.812 101.188ZM121.562 99.9375L121.533 98.9379L121.532 98.938L121.562 99.9375ZM117.562 100.125L117.615 101.124L117.627 101.123L117.562 100.125ZM113.062 100.375L113.004 99.3767L112.062 99.4321V100.375H113.062ZM113.062 172.062H112.062V173.002L113 173.061L113.062 172.062ZM115.062 172.188L115 173.186L115.004 173.186L115.062 172.188ZM117.188 172.312L117.259 171.315L117.246 171.314L117.188 172.312ZM135.062 164.625L135.989 165.001L135.992 164.994L135.062 164.625ZM137.688 153.312L136.697 153.174L136.696 153.181L137.688 153.312ZM149.062 134.812C149.062 144.324 148.543 152.096 147.514 158.145L149.486 158.48C150.541 152.279 151.062 144.384 151.062 134.812H149.062ZM147.514 158.144C146.485 164.155 144.892 168.806 142.779 172.154L144.471 173.221C146.775 169.569 148.432 164.636 149.486 158.481L147.514 158.144ZM142.775 172.161C140.699 175.514 138.143 177.772 135.12 179.012L135.88 180.863C139.357 179.436 142.217 176.861 144.475 173.214L142.775 172.161ZM135.131 179.008C132.022 180.244 128.381 180.875 124.188 180.875V182.875C128.578 182.875 132.478 182.214 135.869 180.867L135.131 179.008ZM124.188 180.875C121.735 180.875 119.198 180.854 116.578 180.813L116.547 182.812C119.177 182.854 121.724 182.875 124.188 182.875V180.875ZM116.579 180.813C114.012 180.771 111.636 180.668 109.45 180.503L109.3 182.497C111.531 182.666 113.946 182.77 116.546 182.812L116.579 180.813ZM109.439 180.502C108.148 180.419 106.878 180.335 105.629 180.252L105.496 182.248C106.747 182.331 108.018 182.415 109.311 182.498L109.439 180.502ZM105.631 180.252C105.59 180.25 105.644 180.253 105.603 180.25C105.562 180.248 105.616 180.251 105.575 180.248C105.533 180.246 105.588 180.249 105.546 180.247C105.505 180.244 105.559 180.247 105.518 180.245C105.477 180.242 105.531 180.245 105.49 180.243C105.449 180.24 105.503 180.243 105.461 180.241C105.42 180.238 105.474 180.242 105.433 180.239C105.392 180.236 105.446 180.24 105.405 180.237C105.364 180.234 105.418 180.238 105.376 180.235C105.335 180.232 105.389 180.236 105.348 180.233C105.307 180.23 105.361 180.234 105.32 180.231C105.279 180.228 105.333 180.232 105.291 180.229C105.25 180.226 105.304 180.23 105.263 180.227C105.222 180.224 105.276 180.228 105.235 180.225C105.194 180.222 105.248 180.226 105.206 180.223C105.165 180.22 105.219 180.224 105.178 180.221C105.137 180.218 105.191 180.222 105.15 180.219C105.109 180.216 105.163 180.22 105.122 180.217C105.08 180.214 105.134 180.218 105.093 180.215C105.052 180.212 105.106 180.216 105.065 180.213C105.024 180.21 105.078 180.214 105.037 180.211C104.995 180.209 105.049 180.212 105.008 180.209C104.967 180.207 105.021 180.21 104.98 180.207C104.939 180.205 104.993 180.208 104.952 180.205C104.91 180.203 104.964 180.206 104.923 180.204C104.882 180.201 104.936 180.204 104.895 180.202C104.854 180.199 104.908 180.202 104.867 180.2C104.825 180.197 104.88 180.201 104.838 180.198C104.797 180.195 104.851 180.199 104.81 180.196C104.769 180.193 104.823 180.197 104.782 180.194C104.74 180.191 104.795 180.195 104.753 180.192C104.712 180.189 104.766 180.193 104.725 180.19C104.684 180.187 104.738 180.191 104.697 180.188C104.656 180.185 104.71 180.189 104.668 180.186C104.627 180.183 104.681 180.187 104.64 180.184C104.599 180.181 104.653 180.185 104.612 180.182C104.571 180.179 104.625 180.183 104.583 180.18C104.542 180.177 104.596 180.181 104.555 180.178C104.514 180.175 104.568 180.179 104.527 180.176C104.486 180.173 104.54 180.177 104.498 180.174C104.457 180.171 104.511 180.175 104.47 180.172C104.429 180.169 104.483 180.173 104.442 180.17C104.401 180.167 104.455 180.171 104.414 180.168C104.372 180.166 104.426 180.169 104.385 180.166C104.344 180.164 104.398 180.167 104.357 180.164C104.316 180.162 104.37 180.165 104.329 180.163C104.287 180.16 104.341 180.163 104.3 180.161C104.259 180.158 104.313 180.161 104.272 180.159C104.231 180.156 104.285 180.16 104.244 180.157C104.202 180.154 104.256 180.158 104.215 180.155C104.174 180.152 104.228 180.156 104.187 180.153C104.146 180.15 104.2 180.154 104.159 180.151C104.117 180.148 104.172 180.152 104.13 180.149C104.089 180.146 104.143 180.15 104.102 180.147C104.061 180.144 104.115 180.148 104.074 180.145C104.032 180.142 104.087 180.146 104.045 180.143C104.004 180.14 104.058 180.144 104.017 180.141C103.976 180.138 104.03 180.142 103.989 180.139C103.948 180.136 104.002 180.14 103.96 180.137C103.919 180.134 103.973 180.138 103.932 180.135C103.891 180.132 103.945 180.136 103.904 180.133C103.863 180.13 103.917 180.134 103.875 180.131C103.834 180.128 103.888 180.132 103.847 180.129C103.806 180.126 103.86 180.13 103.819 180.127C103.796 180.126 103.785 180.125 103.762 180.123C103.739 180.122 103.729 180.121 103.706 180.12C103.682 180.118 103.672 180.117 103.649 180.116C103.626 180.114 103.615 180.113 103.592 180.112C103.569 180.11 103.559 180.109 103.536 180.108C103.513 180.106 103.502 180.106 103.479 180.104C103.456 180.102 103.445 180.102 103.422 180.1C103.399 180.098 103.389 180.098 103.366 180.096C103.343 180.095 103.332 180.094 103.309 180.092C103.286 180.091 103.275 180.09 103.252 180.088C103.229 180.087 103.219 180.086 103.196 180.084C103.173 180.083 103.162 180.082 103.139 180.08C103.116 180.079 103.106 180.078 103.082 180.077C103.059 180.075 103.049 180.074 103.026 180.073C103.003 180.071 102.992 180.07 102.969 180.069C102.946 180.067 102.936 180.066 102.913 180.065C102.906 180.064 102.89 180.063 102.884 180.063C102.878 180.062 102.862 180.061 102.856 180.061C102.85 180.061 102.834 180.059 102.828 180.059C102.821 180.059 102.806 180.057 102.799 180.057C102.793 180.057 102.777 180.056 102.771 180.055C102.765 180.055 102.749 180.054 102.743 180.053C102.736 180.053 102.721 180.052 102.714 180.051C102.708 180.051 102.692 180.05 102.686 180.049C102.68 180.049 102.664 180.048 102.658 180.047C102.651 180.047 102.636 180.046 102.629 180.045C102.623 180.045 102.607 180.044 102.601 180.043C102.595 180.043 102.579 180.042 102.573 180.041C102.566 180.041 102.551 180.04 102.544 180.039C102.538 180.039 102.522 180.038 102.516 180.038C102.51 180.037 102.494 180.036 102.488 180.036C102.481 180.035 102.466 180.034 102.459 180.034C102.446 180.033 102.459 180.034 102.445 180.033C102.432 180.032 102.444 180.033 102.431 180.032C102.418 180.031 102.43 180.032 102.417 180.031C102.404 180.03 102.416 180.031 102.403 180.03C102.389 180.029 102.402 180.03 102.389 180.029C102.375 180.028 102.388 180.029 102.374 180.028C102.361 180.027 102.374 180.028 102.36 180.027C102.347 180.026 102.36 180.027 102.346 180.026C102.333 180.025 102.345 180.026 102.332 180.025C102.319 180.024 102.331 180.025 102.318 180.024C102.304 180.023 102.317 180.024 102.304 180.023C102.29 180.022 102.303 180.023 102.29 180.022C102.276 180.021 102.289 180.022 102.275 180.021C102.262 180.02 102.275 180.021 102.261 180.02C102.248 180.019 102.26 180.02 102.247 180.019C102.234 180.018 102.246 180.019 102.233 180.018C102.231 180.018 102.22 180.017 102.219 180.017C102.217 180.017 102.206 180.016 102.205 180.016C102.203 180.016 102.192 180.015 102.19 180.015C102.189 180.015 102.178 180.014 102.176 180.014C102.175 180.014 102.164 180.013 102.162 180.013C102.16 180.013 102.149 180.012 102.148 180.012C102.146 180.012 102.135 180.011 102.134 180.011C102.132 180.011 102.121 180.01 102.12 180.01C102.118 180.01 102.107 180.009 102.105 180.009C102.104 180.009 102.093 180.008 102.091 180.008C102.09 180.008 102.079 180.007 102.077 180.007C102.076 180.007 102.065 180.006 102.063 180.006C102.061 180.006 102.05 180.005 102.049 180.005C102.047 180.005 102.036 180.004 102.035 180.004C102.033 180.004 102.022 180.003 102.02 180.003C102.019 180.003 102.008 180.002 102.006 180.002L101.869 181.998C101.96 182.004 101.89 181.999 101.982 182.005C102.075 182.012 102.003 182.007 102.095 182.013C102.189 182.02 102.115 182.015 102.209 182.021C102.302 182.028 102.228 182.022 102.322 182.029C102.418 182.036 102.339 182.03 102.435 182.037C102.532 182.043 102.452 182.038 102.548 182.045C102.645 182.051 102.565 182.046 102.662 182.052C102.758 182.059 102.678 182.053 102.775 182.06C102.821 182.063 102.842 182.065 102.888 182.068C102.934 182.071 102.955 182.073 103.002 182.076C103.048 182.079 103.069 182.08 103.115 182.084C103.161 182.087 103.182 182.088 103.228 182.091C103.274 182.095 103.295 182.096 103.341 182.099C103.387 182.102 103.409 182.104 103.455 182.107C103.501 182.11 103.522 182.112 103.568 182.115C103.614 182.118 103.635 182.119 103.681 182.123C103.746 182.127 103.729 182.126 103.794 182.13C103.86 182.135 103.843 182.134 103.908 182.138C103.973 182.143 103.956 182.142 104.021 182.146C104.086 182.151 104.069 182.149 104.134 182.154C104.199 182.158 104.183 182.157 104.248 182.162C104.313 182.166 104.296 182.165 104.361 182.17C104.426 182.174 104.409 182.173 104.474 182.177C104.539 182.182 104.522 182.181 104.587 182.185C104.653 182.19 104.636 182.188 104.701 182.193C104.766 182.197 104.749 182.196 104.814 182.201C104.879 182.205 104.862 182.204 104.927 182.209C104.992 182.213 104.975 182.212 105.041 182.216C105.106 182.221 105.089 182.22 105.154 182.224C105.219 182.229 105.202 182.228 105.267 182.232C105.332 182.236 105.315 182.235 105.38 182.24C105.446 182.244 105.429 182.243 105.494 182.248L105.631 180.252ZM102.938 181V91.375H100.938V181H102.938ZM102.009 92.3725C102.011 92.3723 102.061 92.3687 102.063 92.3686C102.065 92.3684 102.116 92.3648 102.118 92.3646C102.12 92.3645 102.171 92.3609 102.173 92.3607C102.175 92.3606 102.226 92.357 102.227 92.3568C102.229 92.3567 102.28 92.3531 102.282 92.3529C102.284 92.3528 102.335 92.3492 102.337 92.349C102.339 92.3489 102.39 92.3453 102.392 92.3451C102.394 92.345 102.444 92.3413 102.446 92.3412C102.448 92.3411 102.499 92.3374 102.501 92.3373C102.503 92.3372 102.554 92.3335 102.556 92.3334C102.558 92.3333 102.608 92.3296 102.61 92.3295C102.612 92.3293 102.663 92.3257 102.665 92.3256C102.667 92.3254 102.718 92.3218 102.72 92.3217C102.722 92.3215 102.772 92.3179 102.774 92.3178C102.776 92.3176 102.827 92.314 102.829 92.3139C102.831 92.3137 102.882 92.3101 102.884 92.31C102.886 92.3098 102.936 92.3062 102.938 92.3061C102.94 92.3059 102.991 92.3023 102.993 92.3021C102.995 92.302 103.046 92.2984 103.048 92.2982C103.05 92.2981 103.101 92.2945 103.102 92.2943C103.104 92.2942 103.155 92.2906 103.157 92.2904C103.159 92.2903 103.21 92.2867 103.212 92.2865C103.214 92.2864 103.265 92.2828 103.267 92.2826C103.269 92.2825 103.319 92.2788 103.321 92.2787C103.323 92.2786 103.374 92.2749 103.376 92.2748C103.378 92.2747 103.429 92.271 103.431 92.2709C103.433 92.2708 103.483 92.2671 103.485 92.267C103.487 92.2668 103.538 92.2632 103.54 92.2631C103.542 92.2629 103.593 92.2593 103.595 92.2592C103.597 92.259 103.647 92.2554 103.649 92.2553C103.651 92.2551 103.702 92.2515 103.704 92.2514C103.706 92.2512 103.757 92.2476 103.759 92.2475C103.909 92.2367 104.046 92.227 104.196 92.2162C104.347 92.2054 104.483 92.1957 104.634 92.185C104.784 92.1742 104.921 92.1645 105.071 92.1537C105.222 92.1429 105.358 92.1332 105.509 92.1225L105.366 90.1275C105.364 90.1277 105.314 90.1313 105.312 90.1314C105.31 90.1316 105.259 90.1352 105.257 90.1354C105.255 90.1355 105.204 90.1391 105.202 90.1393C105.2 90.1394 105.149 90.143 105.148 90.1432C105.146 90.1433 105.095 90.1469 105.093 90.1471C105.091 90.1472 105.04 90.1508 105.038 90.151C105.036 90.1511 104.985 90.1547 104.983 90.1549C104.981 90.155 104.931 90.1587 104.929 90.1588C104.927 90.1589 104.876 90.1626 104.874 90.1627C104.872 90.1628 104.821 90.1665 104.819 90.1666C104.817 90.1667 104.767 90.1704 104.765 90.1705C104.763 90.1707 104.712 90.1743 104.71 90.1744C104.708 90.1746 104.657 90.1782 104.655 90.1783C104.653 90.1785 104.603 90.1821 104.601 90.1822C104.599 90.1824 104.548 90.186 104.546 90.1861C104.544 90.1863 104.493 90.1899 104.491 90.19C104.489 90.1902 104.439 90.1938 104.437 90.1939C104.435 90.1941 104.384 90.1977 104.382 90.1979C104.38 90.198 104.329 90.2016 104.327 90.2018C104.325 90.2019 104.274 90.2055 104.273 90.2057C104.271 90.2058 104.22 90.2094 104.218 90.2096C104.216 90.2097 104.165 90.2133 104.163 90.2135C104.161 90.2136 104.11 90.2172 104.108 90.2174C104.106 90.2175 104.056 90.2212 104.054 90.2213C104.052 90.2214 104.001 90.2251 103.999 90.2252C103.997 90.2253 103.946 90.229 103.944 90.2291C103.942 90.2292 103.892 90.2329 103.89 90.233C103.888 90.2332 103.837 90.2368 103.835 90.2369C103.833 90.2371 103.782 90.2407 103.78 90.2408C103.778 90.241 103.728 90.2446 103.726 90.2447C103.724 90.2449 103.673 90.2485 103.671 90.2486C103.669 90.2488 103.618 90.2524 103.616 90.2525C103.466 90.2633 103.329 90.273 103.179 90.2838C103.028 90.2946 102.892 90.3043 102.741 90.315C102.591 90.3258 102.454 90.3355 102.304 90.3463C102.153 90.3571 102.017 90.3668 101.866 90.3775L102.009 92.3725ZM105.509 92.1225C106.675 92.0392 107.861 91.9559 109.069 91.8726L108.931 89.8774C107.722 89.9608 106.534 90.0441 105.366 90.1275L105.509 92.1225ZM109.081 91.8717C111.098 91.707 113.306 91.6037 115.705 91.5624L115.67 89.5626C113.236 89.6046 110.985 89.7096 108.919 89.8783L109.081 91.8717ZM115.704 91.5624C118.158 91.5208 120.485 91.5 122.688 91.5V89.5C120.473 89.5 118.134 89.5209 115.671 89.5626L115.704 91.5624ZM122.688 91.5C127.11 91.5 130.963 92.0326 134.26 93.0782L134.865 91.1718C131.329 90.0507 127.265 89.5 122.688 89.5V91.5ZM134.274 93.0825C137.501 94.0544 140.198 96.0355 142.374 99.0812L144.001 97.9188C141.593 94.5478 138.541 92.2789 134.851 91.1675L134.274 93.0825ZM142.379 99.0882C144.595 102.136 146.284 106.46 147.394 112.13L149.356 111.745C148.216 105.915 146.446 101.281 143.996 97.9118L142.379 99.0882ZM147.394 112.13C148.501 117.79 149.062 125.343 149.062 134.812H151.062C151.062 125.282 150.499 117.585 149.356 111.745L147.394 112.13ZM139.688 135.688C139.688 128 139.375 121.764 138.741 116.993L136.759 117.257C137.375 121.903 137.688 128.042 137.688 135.688H139.688ZM138.741 116.993C138.111 112.242 137.176 108.499 135.903 105.821L134.097 106.679C135.24 109.084 136.139 112.591 136.759 117.257L138.741 116.993ZM135.909 105.833C134.696 103.19 133.175 101.275 131.269 100.298L130.356 102.077C131.7 102.767 132.971 104.227 134.091 106.667L135.909 105.833ZM131.296 100.312C129.553 99.3488 127.613 98.875 125.5 98.875V100.875C127.304 100.875 128.906 101.276 130.329 102.063L131.296 100.312ZM125.5 98.875C124.28 98.875 122.958 98.896 121.533 98.9379L121.592 100.937C123 100.896 124.303 100.875 125.5 100.875V98.875ZM121.532 98.938C120.147 98.9799 118.802 99.043 117.498 99.1271L117.627 101.123C118.907 101.04 120.228 100.978 121.593 100.937L121.532 98.938ZM117.51 99.1264C116.717 99.1681 115.946 99.2098 115.195 99.2515L115.305 101.248C116.054 101.207 116.824 101.165 117.615 101.124L117.51 99.1264ZM115.195 99.2515C114.444 99.2933 113.713 99.335 113.004 99.3767L113.121 101.373C113.828 101.332 114.556 101.29 115.305 101.248L115.195 99.2515ZM112.062 100.375V172.062H114.062V100.375H112.062ZM113 173.061C113.019 173.062 113.107 173.067 113.125 173.068C113.144 173.07 113.232 173.075 113.25 173.076C113.269 173.077 113.357 173.083 113.375 173.084C113.394 173.085 113.482 173.091 113.5 173.092C113.519 173.093 113.607 173.098 113.625 173.1C113.644 173.101 113.732 173.106 113.75 173.107C113.769 173.109 113.857 173.114 113.875 173.115C113.894 173.116 113.982 173.122 114 173.123C114.05 173.126 114.201 173.136 114.25 173.139C114.3 173.142 114.451 173.151 114.5 173.154C114.55 173.157 114.701 173.167 114.75 173.17C114.8 173.173 114.951 173.182 115 173.186L115.125 171.189C114.73 171.165 114.52 171.152 114.125 171.127C114.069 171.123 114.055 171.123 114 171.119C113.944 171.116 113.93 171.115 113.875 171.111C113.819 171.108 113.805 171.107 113.75 171.104C113.694 171.1 113.68 171.099 113.625 171.096C113.569 171.092 113.555 171.091 113.5 171.088C113.444 171.084 113.43 171.084 113.375 171.08C113.319 171.077 113.305 171.076 113.25 171.072C113.194 171.069 113.18 171.068 113.125 171.064L113 173.061ZM115.004 173.186C115.019 173.187 115.055 173.189 115.07 173.19C115.085 173.191 115.122 173.193 115.137 173.194C115.151 173.194 115.188 173.197 115.203 173.197C115.218 173.198 115.255 173.201 115.269 173.201C115.284 173.202 115.321 173.204 115.336 173.205C115.351 173.206 115.387 173.208 115.402 173.209C115.417 173.21 115.454 173.212 115.469 173.213C115.483 173.214 115.52 173.216 115.535 173.217C115.55 173.218 115.587 173.22 115.601 173.221C115.616 173.222 115.653 173.224 115.668 173.225C115.683 173.226 115.719 173.228 115.734 173.229C115.749 173.23 115.786 173.232 115.801 173.233C115.815 173.234 115.852 173.236 115.867 173.237C115.882 173.237 115.919 173.24 115.933 173.24C115.948 173.241 115.985 173.244 116 173.244C116.015 173.245 116.052 173.247 116.066 173.248C116.2 173.256 116.464 173.272 116.598 173.28C116.731 173.287 116.995 173.303 117.129 173.311L117.246 171.314C117.16 171.309 117.067 171.304 116.981 171.299C116.894 171.294 116.802 171.288 116.715 171.283C116.628 171.278 116.536 171.272 116.449 171.267C116.363 171.262 116.27 171.257 116.184 171.252C116.175 171.251 116.159 171.25 116.151 171.25C116.142 171.249 116.126 171.248 116.117 171.248C116.108 171.247 116.093 171.246 116.084 171.246C116.075 171.245 116.06 171.244 116.051 171.244C116.042 171.243 116.027 171.242 116.018 171.242C116.009 171.241 115.993 171.241 115.985 171.24C115.976 171.239 115.96 171.239 115.951 171.238C115.942 171.238 115.927 171.237 115.918 171.236C115.909 171.236 115.894 171.235 115.885 171.234C115.876 171.234 115.861 171.233 115.852 171.232C115.843 171.232 115.827 171.231 115.818 171.23C115.81 171.23 115.794 171.229 115.785 171.228C115.776 171.228 115.761 171.227 115.752 171.226C115.743 171.226 115.728 171.225 115.719 171.224C115.71 171.224 115.695 171.223 115.686 171.222C115.677 171.222 115.661 171.221 115.652 171.22C115.644 171.22 115.628 171.219 115.619 171.219C115.61 171.218 115.595 171.217 115.586 171.217C115.577 171.216 115.562 171.215 115.553 171.215C115.544 171.214 115.529 171.213 115.52 171.213C115.511 171.212 115.495 171.211 115.486 171.211C115.478 171.21 115.462 171.209 115.453 171.209C115.444 171.208 115.429 171.207 115.42 171.207C115.411 171.206 115.396 171.205 115.387 171.205C115.378 171.204 115.362 171.203 115.354 171.203C115.345 171.202 115.329 171.201 115.32 171.201C115.312 171.2 115.296 171.2 115.287 171.199C115.278 171.198 115.263 171.198 115.254 171.197C115.245 171.197 115.23 171.196 115.221 171.195C115.212 171.195 115.196 171.194 115.188 171.193C115.179 171.193 115.163 171.192 115.154 171.191C115.146 171.191 115.13 171.19 115.121 171.189L115.004 173.186ZM117.116 173.31C118.3 173.395 119.627 173.458 121.096 173.5L121.154 171.5C119.706 171.459 118.408 171.397 117.259 171.315L117.116 173.31ZM121.096 173.5C122.564 173.542 123.99 173.562 125.375 173.562V171.562C124.01 171.562 122.603 171.542 121.154 171.5L121.096 173.5ZM125.375 173.562C127.555 173.562 129.571 172.885 131.399 171.56L130.226 169.94C128.72 171.032 127.111 171.562 125.375 171.562V173.562ZM131.399 171.56C133.276 170.199 134.785 167.968 135.989 165.001L134.136 164.249C133.006 167.032 131.682 168.884 130.226 169.94L131.399 171.56ZM135.992 164.994C137.159 162.054 138.048 158.194 138.679 153.444L136.696 153.181C136.077 157.848 135.216 161.529 134.133 164.256L135.992 164.994ZM138.678 153.451C139.353 148.64 139.688 142.715 139.688 135.688H137.688C137.688 142.66 137.355 148.485 136.697 153.174L138.678 153.451ZM211.312 171.625H212.312V170.625H211.312V171.625ZM211.312 181V182H212.312V181H211.312ZM169.312 181H168.312V182H169.312V181ZM169.312 91.375V90.375H168.312V91.375H169.312ZM211.312 91.375H212.312V90.375H211.312V91.375ZM211.312 100.75V101.75H212.312V100.75H211.312ZM180.438 100.75V99.75H179.438V100.75H180.438ZM180.438 130.062H179.438V131.062H180.438V130.062ZM208.125 130.062H209.125V129.062H208.125V130.062ZM208.125 139.375V140.375H209.125V139.375H208.125ZM180.438 139.375V138.375H179.438V139.375H180.438ZM180.438 171.625H179.438V172.625H180.438V171.625ZM210.312 171.625V181H212.312V171.625H210.312ZM211.312 180H169.312V182H211.312V180ZM170.312 181V91.375H168.312V181H170.312ZM169.312 92.375H211.312V90.375H169.312V92.375ZM210.312 91.375V100.75H212.312V91.375H210.312ZM211.312 99.75H180.438V101.75H211.312V99.75ZM179.438 100.75V130.062H181.438V100.75H179.438ZM180.438 131.062H208.125V129.062H180.438V131.062ZM207.125 130.062V139.375H209.125V130.062H207.125ZM208.125 138.375H180.438V140.375H208.125V138.375ZM179.438 139.375V171.625H181.438V139.375H179.438ZM180.438 172.625H211.312V170.625H180.438V172.625Z" fill="white" mask="url(#path-4-outside-1_350_45)"/>
<mask id="path-6-outside-2_350_45" maskUnits="userSpaceOnUse" x="265" y="89" width="115" height="94" fill="black">
<rect fill="white" x="265" y="89" width="115" height="94"/>
<path d="M311.125 91.375V102.688L278.188 171.5H309.812V181H266.812V169.75L299.812 100.875H269.75V91.375H311.125ZM378.625 135.188C378.625 143.021 378.208 149.875 377.375 155.75C376.583 161.583 375.188 166.438 373.188 170.312C371.188 174.188 368.458 177.083 365 179C361.542 180.917 357.167 181.875 351.875 181.875C346.583 181.875 342.208 180.917 338.75 179C335.292 177.083 332.562 174.188 330.562 170.312C328.562 166.438 327.146 161.583 326.312 155.75C325.521 149.875 325.125 143.021 325.125 135.188C325.125 127.688 325.521 121.146 326.312 115.562C327.146 109.938 328.562 105.271 330.562 101.562C332.562 97.8542 335.292 95.0833 338.75 93.25C342.208 91.4167 346.583 90.5 351.875 90.5C357.167 90.5 361.542 91.4167 365 93.25C368.458 95.0833 371.188 97.8542 373.188 101.562C375.188 105.271 376.583 109.938 377.375 115.562C378.208 121.146 378.625 127.688 378.625 135.188ZM367.25 135.812C367.25 128.729 367 122.896 366.5 118.312C366 113.688 365.146 110 363.938 107.25C362.771 104.542 361.188 102.646 359.188 101.562C357.229 100.438 354.792 99.875 351.875 99.875C348.958 99.875 346.521 100.438 344.562 101.562C342.646 102.646 341.083 104.542 339.875 107.25C337.625 112.458 336.5 121.979 336.5 135.812C336.5 149.438 337.625 158.979 339.875 164.438C341.083 167.354 342.646 169.438 344.562 170.688C346.521 171.938 348.958 172.562 351.875 172.562C354.792 172.562 357.229 171.938 359.188 170.688C361.188 169.438 362.771 167.354 363.938 164.438C365.146 161.562 366 157.812 366.5 153.188C367 148.521 367.25 142.729 367.25 135.812Z"/>
</mask>
<path d="M311.125 91.375V102.688L278.188 171.5H309.812V181H266.812V169.75L299.812 100.875H269.75V91.375H311.125ZM378.625 135.188C378.625 143.021 378.208 149.875 377.375 155.75C376.583 161.583 375.188 166.438 373.188 170.312C371.188 174.188 368.458 177.083 365 179C361.542 180.917 357.167 181.875 351.875 181.875C346.583 181.875 342.208 180.917 338.75 179C335.292 177.083 332.562 174.188 330.562 170.312C328.562 166.438 327.146 161.583 326.312 155.75C325.521 149.875 325.125 143.021 325.125 135.188C325.125 127.688 325.521 121.146 326.312 115.562C327.146 109.938 328.562 105.271 330.562 101.562C332.562 97.8542 335.292 95.0833 338.75 93.25C342.208 91.4167 346.583 90.5 351.875 90.5C357.167 90.5 361.542 91.4167 365 93.25C368.458 95.0833 371.188 97.8542 373.188 101.562C375.188 105.271 376.583 109.938 377.375 115.562C378.208 121.146 378.625 127.688 378.625 135.188ZM367.25 135.812C367.25 128.729 367 122.896 366.5 118.312C366 113.688 365.146 110 363.938 107.25C362.771 104.542 361.188 102.646 359.188 101.562C357.229 100.438 354.792 99.875 351.875 99.875C348.958 99.875 346.521 100.438 344.562 101.562C342.646 102.646 341.083 104.542 339.875 107.25C337.625 112.458 336.5 121.979 336.5 135.812C336.5 149.438 337.625 158.979 339.875 164.438C341.083 167.354 342.646 169.438 344.562 170.688C346.521 171.938 348.958 172.562 351.875 172.562C354.792 172.562 357.229 171.938 359.188 170.688C361.188 169.438 362.771 167.354 363.938 164.438C365.146 161.562 366 157.812 366.5 153.188C367 148.521 367.25 142.729 367.25 135.812Z" fill="white"/>
<path d="M311.125 91.375H312.125V90.375H311.125V91.375ZM311.125 102.688L312.027 103.119L312.125 102.914V102.688H311.125ZM278.188 171.5L277.286 171.068L276.6 172.5H278.188V171.5ZM309.812 171.5H310.812V170.5H309.812V171.5ZM309.812 181V182H310.812V181H309.812ZM266.812 181H265.812V182H266.812V181ZM266.812 169.75L265.911 169.318L265.812 169.523V169.75H266.812ZM299.812 100.875L300.714 101.307L301.4 99.875H299.812V100.875ZM269.75 100.875H268.75V101.875H269.75V100.875ZM269.75 91.375V90.375H268.75V91.375H269.75ZM310.125 91.375V102.688H312.125V91.375H310.125ZM310.223 102.256L277.286 171.068L279.089 171.932L312.027 103.119L310.223 102.256ZM278.188 172.5H309.812V170.5H278.188V172.5ZM308.812 171.5V181H310.812V171.5H308.812ZM309.812 180H266.812V182H309.812V180ZM267.812 181V169.75H265.812V181H267.812ZM267.714 170.182L300.714 101.307L298.911 100.443L265.911 169.318L267.714 170.182ZM299.812 99.875H269.75V101.875H299.812V99.875ZM270.75 100.875V91.375H268.75V100.875H270.75ZM269.75 92.375H311.125V90.375H269.75V92.375ZM377.375 155.75L376.385 155.61L376.384 155.616L377.375 155.75ZM326.312 155.75L325.321 155.884L325.323 155.891L326.312 155.75ZM326.312 115.562L325.323 115.416L325.322 115.422L326.312 115.562ZM377.375 115.562L376.385 115.702L376.386 115.71L377.375 115.562ZM366.5 118.312L365.506 118.42L365.506 118.421L366.5 118.312ZM363.938 107.25L363.019 107.646L363.022 107.652L363.938 107.25ZM359.188 101.562L358.689 102.43L358.7 102.436L358.711 102.442L359.188 101.562ZM344.562 101.562L345.055 102.433L345.061 102.43L344.562 101.562ZM339.875 107.25L338.962 106.843L338.957 106.853L339.875 107.25ZM339.875 164.438L338.95 164.819L338.951 164.82L339.875 164.438ZM344.562 170.688L344.016 171.525L344.024 171.53L344.562 170.688ZM359.188 170.688L358.657 169.839L358.649 169.845L359.188 170.688ZM363.938 164.438L363.016 164.05L363.012 164.058L363.009 164.066L363.938 164.438ZM366.5 153.188L367.494 153.295L367.494 153.294L366.5 153.188ZM377.625 135.188C377.625 142.988 377.21 149.793 376.385 155.61L378.365 155.89C379.207 149.957 379.625 143.054 379.625 135.188H377.625ZM376.384 155.616C375.603 161.373 374.232 166.109 372.299 169.854L374.076 170.771C376.143 166.766 377.564 161.794 378.366 155.884L376.384 155.616ZM372.299 169.854C370.38 173.572 367.783 176.314 364.515 178.125L365.485 179.875C369.133 177.852 371.995 174.803 374.076 170.771L372.299 169.854ZM364.515 178.125C361.247 179.937 357.052 180.875 351.875 180.875V182.875C357.281 182.875 361.836 181.897 365.485 179.875L364.515 178.125ZM351.875 180.875C346.698 180.875 342.503 179.937 339.235 178.125L338.265 179.875C341.914 181.897 346.469 182.875 351.875 182.875V180.875ZM339.235 178.125C335.967 176.314 333.37 173.572 331.451 169.854L329.674 170.771C331.755 174.803 334.617 177.852 338.265 179.875L339.235 178.125ZM331.451 169.854C329.517 166.106 328.125 161.368 327.302 155.609L325.323 155.891C326.167 161.799 327.608 166.769 329.674 170.771L331.451 169.854ZM327.304 155.616C326.519 149.797 326.125 142.989 326.125 135.188H324.125C324.125 143.052 324.522 149.953 325.321 155.884L327.304 155.616ZM326.125 135.188C326.125 127.72 326.519 121.227 327.303 115.703L325.322 115.422C324.522 121.064 324.125 127.655 324.125 135.188H326.125ZM327.302 115.709C328.124 110.161 329.513 105.615 331.443 102.037L329.682 101.088C327.612 104.927 326.168 109.714 325.323 115.416L327.302 115.709ZM331.443 102.037C333.356 98.4889 335.948 95.8671 339.218 94.1335L338.282 92.3665C334.635 94.2995 331.769 97.2194 329.682 101.088L331.443 102.037ZM339.218 94.1335C342.491 92.3988 346.692 91.5 351.875 91.5V89.5C346.475 89.5 341.926 90.4345 338.282 92.3665L339.218 94.1335ZM351.875 91.5C357.058 91.5 361.259 92.3988 364.532 94.1335L365.468 92.3665C361.824 90.4345 357.275 89.5 351.875 89.5V91.5ZM364.532 94.1335C367.802 95.8671 370.394 98.4889 372.307 102.037L374.068 101.088C371.981 97.2194 369.115 94.2995 365.468 92.3665L364.532 94.1335ZM372.307 102.037C374.235 105.612 375.604 110.156 376.385 115.702L378.365 115.423C377.562 109.719 376.14 104.93 374.068 101.088L372.307 102.037ZM376.386 115.71C377.21 121.232 377.625 127.722 377.625 135.188H379.625C379.625 127.653 379.207 121.06 378.364 115.415L376.386 115.71ZM368.25 135.812C368.25 128.71 368 122.837 367.494 118.204L365.506 118.421C366 122.955 366.25 128.748 366.25 135.812H368.25ZM367.494 118.205C366.989 113.528 366.119 109.728 364.853 106.848L363.022 107.652C364.173 110.272 365.011 113.847 365.506 118.42L367.494 118.205ZM364.856 106.854C363.627 104.001 361.913 101.902 359.664 100.683L358.711 102.442C360.462 103.39 361.915 105.082 363.019 107.646L364.856 106.854ZM359.686 100.695C357.538 99.4615 354.917 98.875 351.875 98.875V100.875C354.667 100.875 356.921 101.414 358.689 102.43L359.686 100.695ZM351.875 98.875C348.833 98.875 346.212 99.4615 344.064 100.695L345.061 102.43C346.829 101.414 349.083 100.875 351.875 100.875V98.875ZM344.07 100.692C341.912 101.912 340.227 104.006 338.962 106.843L340.788 107.657C341.939 105.078 343.379 103.38 345.055 102.433L344.07 100.692ZM338.957 106.853C336.616 112.272 335.5 121.985 335.5 135.812H337.5C337.5 121.974 338.634 112.644 340.793 107.647L338.957 106.853ZM335.5 135.812C335.5 149.441 336.618 159.161 338.95 164.819L340.8 164.056C338.632 158.798 337.5 149.434 337.5 135.812H335.5ZM338.951 164.82C340.208 167.854 341.878 170.13 344.016 171.525L345.109 169.85C343.414 168.745 341.958 166.854 340.799 164.055L338.951 164.82ZM344.024 171.53C346.18 172.906 348.816 173.562 351.875 173.562V171.562C349.1 171.562 346.862 170.969 345.101 169.845L344.024 171.53ZM351.875 173.562C354.934 173.562 357.57 172.906 359.726 171.53L358.649 169.845C356.888 170.969 354.65 171.562 351.875 171.562V173.562ZM359.717 171.535C361.949 170.141 363.646 167.858 364.866 164.809L363.009 164.066C361.895 166.85 360.426 168.734 358.658 169.84L359.717 171.535ZM364.859 164.825C366.119 161.828 366.988 157.974 367.494 153.295L365.506 153.08C365.012 157.651 364.173 161.297 363.016 164.05L364.859 164.825ZM367.494 153.294C367.999 148.58 368.25 142.75 368.25 135.812H366.25C366.25 142.709 366.001 148.462 365.506 153.081L367.494 153.294Z" fill="white" mask="url(#path-6-outside-2_350_45)"/>
<mask id="path-8-outside-3_350_45" maskUnits="userSpaceOnUse" x="273" y="261" width="106" height="94" fill="black">
<rect fill="white" x="273" y="261" width="106" height="94"/>
<path d="M320.625 288.625C320.625 295.292 319.646 300.75 317.688 305C315.729 309.25 312.458 312.271 307.875 314.062L325.375 353H313.125L296.688 315.875H285.312V353H274.188V263.375C275.271 263.292 276.375 263.208 277.5 263.125C278.625 263.042 279.792 262.958 281 262.875C283.042 262.708 285.354 262.604 287.938 262.562C290.562 262.521 293.188 262.5 295.812 262.5C300.688 262.5 304.708 263.104 307.875 264.312C311.083 265.521 313.646 267.292 315.562 269.625C317.438 271.917 318.75 274.688 319.5 277.938C320.25 281.146 320.625 284.708 320.625 288.625ZM309.25 289.5C309.25 283.292 308.396 278.792 306.688 276C304.979 273.167 301.875 271.75 297.375 271.75C293.792 271.75 290.875 271.875 288.625 272.125C287.375 272.292 286.271 272.417 285.312 272.5V306.562H297.375C299.167 306.562 300.771 306.333 302.188 305.875C303.646 305.375 304.917 304.5 306 303.25C308.167 300.833 309.25 296.25 309.25 289.5ZM377.938 327.5C377.938 332.792 377.333 337.146 376.125 340.562C374.917 343.979 373.208 346.667 371 348.625C368.792 350.583 366.125 351.958 363 352.75C359.875 353.5 356.396 353.875 352.562 353.875C350.521 353.875 348.083 353.708 345.25 353.375C342.458 353.042 339.938 352.583 337.688 352V342.625C339.688 343.125 342 343.583 344.625 344C347.292 344.375 350.354 344.562 353.812 344.562C358.271 344.562 361.5 343.292 363.5 340.75C365.5 338.167 366.5 334.188 366.5 328.812C366.5 322.979 365.75 318.833 364.25 316.375C362.75 313.875 360.042 312.208 356.125 311.375C352.542 310.625 349.521 309.667 347.062 308.5C344.604 307.292 342.604 305.75 341.062 303.875C338.062 300.208 336.562 294.646 336.562 287.188C336.562 282.604 337.167 278.75 338.375 275.625C339.625 272.5 341.396 269.958 343.688 268C345.938 266.042 348.583 264.646 351.625 263.812C354.708 262.938 358.083 262.5 361.75 262.5C363.917 262.5 366.25 262.688 368.75 263.062C371.25 263.438 373.458 263.896 375.375 264.438V273.75C373.125 273.25 370.625 272.812 367.875 272.438C365.167 272.062 362.708 271.875 360.5 271.875C356.958 271.875 353.979 273.021 351.562 275.312C349.146 277.604 347.938 281.104 347.938 285.812C347.938 289.104 348.167 291.75 348.625 293.75C349.125 295.708 350.083 297.229 351.5 298.312C352.917 299.354 355.021 300.167 357.812 300.75C360.896 301.375 363.667 302.25 366.125 303.375C368.583 304.458 370.688 306 372.438 308C374.188 310 375.542 312.583 376.5 315.75C377.458 318.917 377.938 322.833 377.938 327.5Z"/>
</mask>
<path d="M320.625 288.625C320.625 295.292 319.646 300.75 317.688 305C315.729 309.25 312.458 312.271 307.875 314.062L325.375 353H313.125L296.688 315.875H285.312V353H274.188V263.375C275.271 263.292 276.375 263.208 277.5 263.125C278.625 263.042 279.792 262.958 281 262.875C283.042 262.708 285.354 262.604 287.938 262.562C290.562 262.521 293.188 262.5 295.812 262.5C300.688 262.5 304.708 263.104 307.875 264.312C311.083 265.521 313.646 267.292 315.562 269.625C317.438 271.917 318.75 274.688 319.5 277.938C320.25 281.146 320.625 284.708 320.625 288.625ZM309.25 289.5C309.25 283.292 308.396 278.792 306.688 276C304.979 273.167 301.875 271.75 297.375 271.75C293.792 271.75 290.875 271.875 288.625 272.125C287.375 272.292 286.271 272.417 285.312 272.5V306.562H297.375C299.167 306.562 300.771 306.333 302.188 305.875C303.646 305.375 304.917 304.5 306 303.25C308.167 300.833 309.25 296.25 309.25 289.5ZM377.938 327.5C377.938 332.792 377.333 337.146 376.125 340.562C374.917 343.979 373.208 346.667 371 348.625C368.792 350.583 366.125 351.958 363 352.75C359.875 353.5 356.396 353.875 352.562 353.875C350.521 353.875 348.083 353.708 345.25 353.375C342.458 353.042 339.938 352.583 337.688 352V342.625C339.688 343.125 342 343.583 344.625 344C347.292 344.375 350.354 344.562 353.812 344.562C358.271 344.562 361.5 343.292 363.5 340.75C365.5 338.167 366.5 334.188 366.5 328.812C366.5 322.979 365.75 318.833 364.25 316.375C362.75 313.875 360.042 312.208 356.125 311.375C352.542 310.625 349.521 309.667 347.062 308.5C344.604 307.292 342.604 305.75 341.062 303.875C338.062 300.208 336.562 294.646 336.562 287.188C336.562 282.604 337.167 278.75 338.375 275.625C339.625 272.5 341.396 269.958 343.688 268C345.938 266.042 348.583 264.646 351.625 263.812C354.708 262.938 358.083 262.5 361.75 262.5C363.917 262.5 366.25 262.688 368.75 263.062C371.25 263.438 373.458 263.896 375.375 264.438V273.75C373.125 273.25 370.625 272.812 367.875 272.438C365.167 272.062 362.708 271.875 360.5 271.875C356.958 271.875 353.979 273.021 351.562 275.312C349.146 277.604 347.938 281.104 347.938 285.812C347.938 289.104 348.167 291.75 348.625 293.75C349.125 295.708 350.083 297.229 351.5 298.312C352.917 299.354 355.021 300.167 357.812 300.75C360.896 301.375 363.667 302.25 366.125 303.375C368.583 304.458 370.688 306 372.438 308C374.188 310 375.542 312.583 376.5 315.75C377.458 318.917 377.938 322.833 377.938 327.5Z" fill="white"/>
<path d="M307.875 314.062L307.511 313.131L306.532 313.514L306.963 314.472L307.875 314.062ZM325.375 353V354H326.921L326.287 352.59L325.375 353ZM313.125 353L312.211 353.405L312.474 354H313.125V353ZM296.688 315.875L297.602 315.47L297.338 314.875H296.688V315.875ZM285.312 315.875V314.875H284.312V315.875H285.312ZM285.312 353V354H286.312V353H285.312ZM274.188 353H273.188V354H274.188V353ZM274.188 263.375L274.111 262.378L273.188 262.449V263.375H274.188ZM281 262.875L281.069 263.873L281.081 263.872L281 262.875ZM287.938 262.562L287.922 261.563L287.921 261.563L287.938 262.562ZM307.875 264.312L307.518 265.247L307.523 265.248L307.875 264.312ZM315.562 269.625L316.336 268.992L316.335 268.99L315.562 269.625ZM319.5 277.938L318.526 278.162L318.526 278.165L319.5 277.938ZM306.688 276L305.831 276.516L305.835 276.522L306.688 276ZM288.625 272.125L288.515 271.131L288.504 271.132L288.493 271.134L288.625 272.125ZM285.312 272.5L285.226 271.504L284.312 271.583V272.5H285.312ZM285.312 306.562H284.312V307.562H285.312V306.562ZM302.188 305.875L302.495 306.826L302.504 306.824L302.512 306.821L302.188 305.875ZM306 303.25L305.255 302.582L305.25 302.589L305.244 302.595L306 303.25ZM319.625 288.625C319.625 295.204 318.657 300.506 316.779 304.582L318.596 305.418C320.635 300.994 321.625 295.379 321.625 288.625H319.625ZM316.779 304.582C314.935 308.584 311.867 311.428 307.511 313.131L308.239 314.994C313.05 313.113 316.523 309.916 318.596 305.418L316.779 304.582ZM306.963 314.472L324.463 353.41L326.287 352.59L308.787 313.653L306.963 314.472ZM325.375 352H313.125V354H325.375V352ZM314.039 352.595L297.602 315.47L295.773 316.28L312.211 353.405L314.039 352.595ZM296.688 314.875H285.312V316.875H296.688V314.875ZM284.312 315.875V353H286.312V315.875H284.312ZM285.312 352H274.188V354H285.312V352ZM275.188 353V263.375H273.188V353H275.188ZM274.264 264.372C275.347 264.289 276.45 264.206 277.574 264.122L277.426 262.128C276.3 262.211 275.195 262.295 274.111 262.378L274.264 264.372ZM277.574 264.122C278.697 264.039 279.862 263.956 281.069 263.873L280.931 261.877C279.721 261.961 278.553 262.044 277.426 262.128L277.574 264.122ZM281.081 263.872C283.097 263.707 285.387 263.604 287.954 263.562L287.921 261.563C285.322 261.605 282.987 261.709 280.919 261.878L281.081 263.872ZM287.953 263.562C290.573 263.521 293.193 263.5 295.812 263.5V261.5C293.182 261.5 290.552 261.521 287.922 261.563L287.953 263.562ZM295.812 263.5C300.615 263.5 304.504 264.096 307.518 265.247L308.232 263.378C304.913 262.112 300.76 261.5 295.812 261.5V263.5ZM307.523 265.248C310.589 266.403 312.999 268.079 314.79 270.26L316.335 268.99C314.293 266.504 311.577 264.638 308.227 263.377L307.523 265.248ZM314.789 270.258C316.555 272.417 317.806 275.043 318.526 278.162L320.474 277.713C319.694 274.332 318.32 271.417 316.336 268.992L314.789 270.258ZM318.526 278.165C319.256 281.286 319.625 284.771 319.625 288.625H321.625C321.625 284.646 321.244 281.005 320.474 277.71L318.526 278.165ZM310.25 289.5C310.25 283.246 309.398 278.514 307.54 275.478L305.835 276.522C307.394 279.07 308.25 283.337 308.25 289.5H310.25ZM307.544 275.484C305.592 272.246 302.084 270.75 297.375 270.75V272.75C301.666 272.75 304.366 274.087 305.831 276.516L307.544 275.484ZM297.375 270.75C293.773 270.75 290.816 270.875 288.515 271.131L288.735 273.119C290.934 272.875 293.81 272.75 297.375 272.75V270.75ZM288.493 271.134C287.254 271.299 286.165 271.422 285.226 271.504L285.399 273.496C286.376 273.411 287.496 273.284 288.757 273.116L288.493 271.134ZM284.312 272.5V306.562H286.312V272.5H284.312ZM285.312 307.562H297.375V305.562H285.312V307.562ZM297.375 307.562C299.251 307.562 300.961 307.323 302.495 306.826L301.88 304.924C300.58 305.344 299.083 305.562 297.375 305.562V307.562ZM302.512 306.821C304.149 306.26 305.565 305.278 306.756 303.905L305.244 302.595C304.268 303.722 303.142 304.49 301.863 304.929L302.512 306.821ZM306.745 303.918C307.979 302.541 308.847 300.616 309.411 298.23C309.976 295.838 310.25 292.922 310.25 289.5H308.25C308.25 292.828 307.982 295.578 307.464 297.77C306.945 299.967 306.188 301.542 305.255 302.582L306.745 303.918ZM363 352.75L363.233 353.722L363.246 353.719L363 352.75ZM345.25 353.375L345.131 354.368L345.133 354.368L345.25 353.375ZM337.688 352H336.688V352.774L337.437 352.968L337.688 352ZM337.688 342.625L337.93 341.655L336.688 341.344V342.625H337.688ZM344.625 344L344.468 344.988L344.477 344.989L344.486 344.99L344.625 344ZM363.5 340.75L364.286 341.368L364.291 341.362L363.5 340.75ZM364.25 316.375L363.392 316.89L363.396 316.896L364.25 316.375ZM356.125 311.375L356.333 310.397L356.33 310.396L356.125 311.375ZM347.062 308.5L346.621 309.398L346.634 309.403L347.062 308.5ZM341.062 303.875L340.289 304.508L340.29 304.51L341.062 303.875ZM338.375 275.625L337.446 275.254L337.442 275.264L338.375 275.625ZM343.688 268L344.337 268.76L344.344 268.754L343.688 268ZM351.625 263.812L351.889 264.777L351.898 264.775L351.625 263.812ZM375.375 264.438H376.375V263.681L375.647 263.475L375.375 264.438ZM375.375 273.75L375.158 274.726L376.375 274.997V273.75H375.375ZM367.875 272.438L367.738 273.428L367.74 273.428L367.875 272.438ZM348.625 293.75L347.65 293.973L347.653 293.985L347.656 293.997L348.625 293.75ZM351.5 298.312L350.893 299.107L350.9 299.113L350.908 299.118L351.5 298.312ZM357.812 300.75L357.608 301.729L357.614 301.73L357.812 300.75ZM366.125 303.375L365.709 304.284L365.722 304.29L366.125 303.375ZM376.938 327.5C376.938 332.726 376.34 336.957 375.182 340.229L377.068 340.896C378.327 337.335 378.938 332.858 378.938 327.5H376.938ZM375.182 340.229C374.018 343.522 372.392 346.054 370.337 347.877L371.663 349.373C374.024 347.28 375.816 344.436 377.068 340.896L375.182 340.229ZM370.337 347.877C368.259 349.72 365.739 351.025 362.754 351.781L363.246 353.719C366.511 352.892 369.325 351.447 371.663 349.373L370.337 347.877ZM362.767 351.778C359.731 352.506 356.332 352.875 352.562 352.875V354.875C356.46 354.875 360.019 354.494 363.233 353.722L362.767 351.778ZM352.562 352.875C350.572 352.875 348.175 352.712 345.367 352.382L345.133 354.368C347.991 354.704 350.47 354.875 352.562 354.875V352.875ZM345.369 352.382C342.613 352.053 340.137 351.602 337.938 351.032L337.437 352.968C339.738 353.565 342.304 354.03 345.131 354.368L345.369 352.382ZM338.688 352V342.625H336.688V352H338.688ZM337.445 343.595C339.48 344.104 341.822 344.568 344.468 344.988L344.782 343.012C342.178 342.599 339.895 342.146 337.93 341.655L337.445 343.595ZM344.486 344.99C347.209 345.373 350.32 345.562 353.812 345.562V343.562C350.388 343.562 347.374 343.377 344.764 343.01L344.486 344.99ZM353.812 345.562C358.454 345.562 362.031 344.234 364.286 341.368L362.714 340.132C360.969 342.35 358.087 343.562 353.812 343.562V345.562ZM364.291 341.362C366.489 338.522 367.5 334.278 367.5 328.812H365.5C365.5 334.097 364.511 337.811 362.709 340.138L364.291 341.362ZM367.5 328.812C367.5 322.949 366.756 318.562 365.104 315.854L363.396 316.896C364.744 319.104 365.5 323.009 365.5 328.812H367.5ZM365.107 315.861C363.418 313.044 360.416 311.266 356.333 310.397L355.917 312.353C359.667 313.151 362.082 314.706 363.393 316.889L365.107 315.861ZM356.33 310.396C352.799 309.657 349.859 308.72 347.491 307.597L346.634 309.403C349.183 310.613 352.284 311.593 355.92 312.354L356.33 310.396ZM347.504 307.603C345.157 306.449 343.275 304.992 341.835 303.24L340.29 304.51C341.933 306.508 344.052 308.134 346.621 309.397L347.504 307.603ZM341.836 303.242C339.046 299.831 337.562 294.54 337.562 287.188H335.562C335.562 294.752 337.079 300.586 340.289 304.508L341.836 303.242ZM337.562 287.188C337.562 282.685 338.157 278.962 339.308 275.986L337.442 275.264C336.176 278.538 335.562 282.523 335.562 287.188H337.562ZM339.303 275.996C340.5 273.004 342.182 270.602 344.337 268.76L343.038 267.24C340.609 269.315 338.75 271.996 337.447 275.254L339.303 275.996ZM344.344 268.754C346.474 266.9 348.984 265.573 351.889 264.777L351.361 262.848C348.183 263.719 345.401 265.183 343.031 267.246L344.344 268.754ZM351.898 264.775C354.881 263.928 358.163 263.5 361.75 263.5V261.5C358.004 261.5 354.536 261.947 351.352 262.85L351.898 264.775ZM361.75 263.5C363.86 263.5 366.143 263.683 368.602 264.051L368.898 262.074C366.357 261.692 363.974 261.5 361.75 261.5V263.5ZM368.602 264.051C371.07 264.422 373.236 264.872 375.103 265.4L375.647 263.475C373.681 262.919 371.43 262.453 368.898 262.074L368.602 264.051ZM374.375 264.438V273.75H376.375V264.438H374.375ZM375.592 272.774C373.31 272.267 370.782 271.825 368.01 271.447L367.74 273.428C370.468 273.8 372.94 274.233 375.158 274.726L375.592 272.774ZM368.012 271.447C365.269 271.067 362.763 270.875 360.5 270.875V272.875C362.653 272.875 365.065 273.058 367.738 273.428L368.012 271.447ZM360.5 270.875C356.72 270.875 353.489 272.107 350.874 274.587L352.251 276.038C354.469 273.935 357.197 272.875 360.5 272.875V270.875ZM350.874 274.587C348.188 277.134 346.938 280.946 346.938 285.812H348.938C348.938 281.263 350.104 278.074 352.251 276.038L350.874 274.587ZM346.938 285.812C346.938 289.14 347.168 291.87 347.65 293.973L349.6 293.527C349.165 291.63 348.938 289.068 348.938 285.812H346.938ZM347.656 293.997C348.204 296.143 349.274 297.869 350.893 299.107L352.107 297.518C350.893 296.589 350.046 295.274 349.594 293.503L347.656 293.997ZM350.908 299.118C352.49 300.281 354.753 301.132 357.608 301.729L358.017 299.771C355.289 299.201 353.344 298.427 352.092 297.507L350.908 299.118ZM357.614 301.73C360.634 302.342 363.33 303.196 365.709 304.284L366.541 302.466C364.003 301.304 361.158 300.408 358.011 299.77L357.614 301.73ZM365.722 304.29C368.048 305.315 370.032 306.77 371.685 308.659L373.19 307.341C371.343 305.23 369.119 303.602 366.528 302.46L365.722 304.29ZM371.685 308.659C373.321 310.529 374.616 312.977 375.543 316.04L377.457 315.46C376.467 312.19 375.054 309.471 373.19 307.341L371.685 308.659ZM375.543 316.04C376.464 319.083 376.938 322.895 376.938 327.5H378.938C378.938 322.772 378.453 318.751 377.457 315.46L375.543 316.04Z" fill="white" mask="url(#path-8-outside-3_350_45)"/>
<path d="M89.8345 266.4C87.6479 266.4 85.5545 266.093 83.5545 265.48C81.5545 264.84 79.9679 264.027 78.7945 263.04L80.5945 259C81.7145 259.88 83.1012 260.613 84.7545 261.2C86.4079 261.787 88.1012 262.08 89.8345 262.08C91.3012 262.08 92.4879 261.92 93.3945 261.6C94.3012 261.28 94.9679 260.853 95.3945 260.32C95.8212 259.76 96.0345 259.133 96.0345 258.44C96.0345 257.587 95.7279 256.907 95.1145 256.4C94.5012 255.867 93.7012 255.453 92.7145 255.16C91.7545 254.84 90.6745 254.547 89.4745 254.28C88.3012 254.013 87.1145 253.707 85.9145 253.36C84.7412 252.987 83.6612 252.52 82.6745 251.96C81.7145 251.373 80.9279 250.6 80.3145 249.64C79.7012 248.68 79.3945 247.453 79.3945 245.96C79.3945 244.44 79.7945 243.053 80.5945 241.8C81.4212 240.52 82.6612 239.507 84.3145 238.76C85.9945 237.987 88.1145 237.6 90.6745 237.6C92.3545 237.6 94.0212 237.813 95.6745 238.24C97.3279 238.667 98.7679 239.28 99.9945 240.08L98.3545 244.12C97.1012 243.373 95.8079 242.827 94.4745 242.48C93.1412 242.107 91.8612 241.92 90.6345 241.92C89.1945 241.92 88.0212 242.093 87.1145 242.44C86.2345 242.787 85.5812 243.24 85.1545 243.8C84.7545 244.36 84.5545 245 84.5545 245.72C84.5545 246.573 84.8479 247.267 85.4345 247.8C86.0479 248.307 86.8345 248.707 87.7945 249C88.7812 249.293 89.8745 249.587 91.0745 249.88C92.2745 250.147 93.4612 250.453 94.6345 250.8C95.8345 251.147 96.9145 251.6 97.8745 252.16C98.8612 252.72 99.6479 253.48 100.235 254.44C100.848 255.4 101.155 256.613 101.155 258.08C101.155 259.573 100.741 260.96 99.9145 262.24C99.1145 263.493 97.8745 264.507 96.1945 265.28C94.5145 266.027 92.3945 266.4 89.8345 266.4ZM111.111 249.64H125.031V253.92H111.111V249.64ZM111.511 261.64H127.311V266H106.311V238H126.751V242.36H111.511V261.64ZM133.108 266V238H144.628C147.108 238 149.228 238.4 150.988 239.2C152.774 240 154.148 241.147 155.108 242.64C156.068 244.133 156.548 245.907 156.548 247.96C156.548 250.013 156.068 251.787 155.108 253.28C154.148 254.747 152.774 255.88 150.988 256.68C149.228 257.453 147.108 257.84 144.628 257.84H135.988L138.308 255.48V266H133.108ZM151.428 266L144.348 255.84H149.908L157.028 266H151.428ZM138.308 256.04L135.988 253.56H144.388C146.681 253.56 148.401 253.067 149.548 252.08C150.721 251.093 151.308 249.72 151.308 247.96C151.308 246.173 150.721 244.8 149.548 243.84C148.401 242.88 146.681 242.4 144.388 242.4H135.988L138.308 239.84V256.04ZM148.067 315L135.827 287H141.467L152.387 312.32H149.147L160.187 287H165.387L153.187 315H148.067ZM168.342 315V287H173.542V315H168.342ZM171.595 364.4C169.462 364.4 167.475 364.053 165.635 363.36C163.822 362.64 162.235 361.64 160.875 360.36C159.542 359.053 158.502 357.52 157.755 355.76C157.008 354 156.635 352.08 156.635 350C156.635 347.92 157.008 346 157.755 344.24C158.502 342.48 159.555 340.96 160.915 339.68C162.275 338.373 163.862 337.373 165.675 336.68C167.488 335.96 169.475 335.6 171.635 335.6C173.928 335.6 176.022 336 177.915 336.8C179.808 337.573 181.408 338.733 182.715 340.28L179.355 343.44C178.342 342.347 177.208 341.533 175.955 341C174.702 340.44 173.342 340.16 171.875 340.16C170.408 340.16 169.062 340.4 167.835 340.88C166.635 341.36 165.582 342.04 164.675 342.92C163.795 343.8 163.102 344.84 162.595 346.04C162.115 347.24 161.875 348.56 161.875 350C161.875 351.44 162.115 352.76 162.595 353.96C163.102 355.16 163.795 356.2 164.675 357.08C165.582 357.96 166.635 358.64 167.835 359.12C169.062 359.6 170.408 359.84 171.875 359.84C173.342 359.84 174.702 359.573 175.955 359.04C177.208 358.48 178.342 357.64 179.355 356.52L182.715 359.72C181.408 361.24 179.808 362.4 177.915 363.2C176.022 364 173.915 364.4 171.595 364.4ZM192.498 347.64H206.418V351.92H192.498V347.64ZM192.898 359.64H208.698V364H187.698V336H208.138V340.36H192.898V359.64ZM223.174 364.4C220.988 364.4 218.894 364.093 216.894 363.48C214.894 362.84 213.308 362.027 212.134 361.04L213.934 357C215.054 357.88 216.441 358.613 218.094 359.2C219.748 359.787 221.441 360.08 223.174 360.08C224.641 360.08 225.828 359.92 226.734 359.6C227.641 359.28 228.308 358.853 228.734 358.32C229.161 357.76 229.374 357.133 229.374 356.44C229.374 355.587 229.068 354.907 228.454 354.4C227.841 353.867 227.041 353.453 226.054 353.16C225.094 352.84 224.014 352.547 222.814 352.28C221.641 352.013 220.454 351.707 219.254 351.36C218.081 350.987 217.001 350.52 216.014 349.96C215.054 349.373 214.268 348.6 213.654 347.64C213.041 346.68 212.734 345.453 212.734 343.96C212.734 342.44 213.134 341.053 213.934 339.8C214.761 338.52 216.001 337.507 217.654 336.76C219.334 335.987 221.454 335.6 224.014 335.6C225.694 335.6 227.361 335.813 229.014 336.24C230.668 336.667 232.108 337.28 233.334 338.08L231.694 342.12C230.441 341.373 229.148 340.827 227.814 340.48C226.481 340.107 225.201 339.92 223.974 339.92C222.534 339.92 221.361 340.093 220.454 340.44C219.574 340.787 218.921 341.24 218.494 341.8C218.094 342.36 217.894 343 217.894 343.72C217.894 344.573 218.188 345.267 218.774 345.8C219.388 346.307 220.174 346.707 221.134 347C222.121 347.293 223.214 347.587 224.414 347.88C225.614 348.147 226.801 348.453 227.974 348.8C229.174 349.147 230.254 349.6 231.214 350.16C232.201 350.72 232.988 351.48 233.574 352.44C234.188 353.4 234.494 354.613 234.494 356.08C234.494 357.573 234.081 358.96 233.254 360.24C232.454 361.493 231.214 362.507 229.534 363.28C227.854 364.027 225.734 364.4 223.174 364.4Z" fill="white"/>
</svg>
