<svg width="109" height="163" viewBox="0 0 109 163" fill="none" xmlns="http://www.w3.org/2000/svg">
<mask id="path-1-outside-1_339_7" maskUnits="userSpaceOnUse" x="12" y="40" width="94" height="92" fill="black">
<rect fill="white" x="12" y="40" width="94" height="92"/>
<path d="M31.288 41.4H63.416C72.2053 41.4 79.672 42.8933 85.816 45.88C91.96 48.8667 96.6107 53.048 99.768 58.424C102.925 63.8 104.504 70.072 104.504 77.24C104.504 87.5653 102.2 96.824 97.592 105.016C93.0693 113.123 86.584 119.48 78.136 124.088C69.688 128.696 59.8747 131 48.696 131H13.368L31.288 41.4ZM48.952 128.568C59.5333 128.568 68.8347 126.392 76.856 122.04C84.8773 117.688 91.064 111.629 95.416 103.864C99.768 96.0987 101.944 87.224 101.944 77.24C101.944 66.9147 98.616 58.7653 91.96 52.792C85.3893 46.8187 75.7893 43.832 63.16 43.832H33.336L16.44 128.568H48.952Z"/>
</mask>
<path d="M31.288 41.4H63.416C72.2053 41.4 79.672 42.8933 85.816 45.88C91.96 48.8667 96.6107 53.048 99.768 58.424C102.925 63.8 104.504 70.072 104.504 77.24C104.504 87.5653 102.2 96.824 97.592 105.016C93.0693 113.123 86.584 119.48 78.136 124.088C69.688 128.696 59.8747 131 48.696 131H13.368L31.288 41.4ZM48.952 128.568C59.5333 128.568 68.8347 126.392 76.856 122.04C84.8773 117.688 91.064 111.629 95.416 103.864C99.768 96.0987 101.944 87.224 101.944 77.24C101.944 66.9147 98.616 58.7653 91.96 52.792C85.3893 46.8187 75.7893 43.832 63.16 43.832H33.336L16.44 128.568H48.952Z" fill="white"/>
<path d="M31.288 41.4V40.4H30.4682L30.3074 41.2039L31.288 41.4ZM85.816 45.88L85.3788 46.7794L85.3788 46.7794L85.816 45.88ZM97.592 105.016L96.7204 104.526L96.7187 104.529L97.592 105.016ZM78.136 124.088L77.6571 123.21L77.6571 123.21L78.136 124.088ZM13.368 131L12.3874 130.804L12.1482 132H13.368V131ZM76.856 122.04L77.3329 122.919L77.3329 122.919L76.856 122.04ZM95.416 103.864L96.2884 104.353L96.2884 104.353L95.416 103.864ZM91.96 52.792L91.2873 53.532L91.2921 53.5362L91.96 52.792ZM33.336 43.832V42.832H32.5157L32.3553 43.6364L33.336 43.832ZM16.44 128.568L15.4593 128.372L15.2209 129.568H16.44V128.568ZM31.288 42.4H63.416V40.4H31.288V42.4ZM63.416 42.4C72.0958 42.4 79.4043 43.8751 85.3788 46.7794L86.2532 44.9806C79.9397 41.9116 72.3149 40.4 63.416 40.4V42.4ZM85.3788 46.7794C91.3632 49.6884 95.8578 53.7407 98.9057 58.9304L100.63 57.9176C97.3636 52.3553 92.5568 48.0449 86.2532 44.9806L85.3788 46.7794ZM98.9057 58.9304C101.96 64.1311 103.504 70.223 103.504 77.24H105.504C105.504 69.921 103.891 63.4689 100.63 57.9176L98.9057 58.9304ZM103.504 77.24C103.504 87.4109 101.236 96.4978 96.7204 104.526L98.4636 105.506C103.164 97.1501 105.504 87.7197 105.504 77.24H103.504ZM96.7187 104.529C92.2915 112.464 85.9458 118.689 77.6571 123.21L78.6149 124.966C87.2222 120.271 93.8472 113.781 98.4653 105.503L96.7187 104.529ZM77.6571 123.21C69.3782 127.726 59.7346 130 48.696 130V132C60.0148 132 69.9978 129.666 78.6149 124.966L77.6571 123.21ZM48.696 130H13.368V132H48.696V130ZM14.3486 131.196L32.2686 41.5961L30.3074 41.2039L12.3874 130.804L14.3486 131.196ZM48.952 129.568C59.6732 129.568 69.1433 127.362 77.3329 122.919L76.3791 121.161C68.526 125.422 59.3935 127.568 48.952 127.568V129.568ZM77.3329 122.919C85.5158 118.479 91.8416 112.287 96.2884 104.353L94.5437 103.375C90.2864 110.971 84.2389 116.897 76.3791 121.161L77.3329 122.919ZM96.2884 104.353C100.734 96.4207 102.944 87.374 102.944 77.24H100.944C100.944 87.074 98.8022 95.7766 94.5437 103.375L96.2884 104.353ZM102.944 77.24C102.944 66.6791 99.5288 58.2408 92.6279 52.0478L91.2921 53.5362C97.7032 59.2898 100.944 67.1503 100.944 77.24H102.944ZM92.6327 52.0521C85.813 45.8524 75.9336 42.832 63.16 42.832V44.832C75.6451 44.832 84.9657 47.785 91.2873 53.5319L92.6327 52.0521ZM63.16 42.832H33.336V44.832H63.16V42.832ZM32.3553 43.6364L15.4593 128.372L17.4207 128.764L34.3167 44.0275L32.3553 43.6364ZM16.44 129.568H48.952V127.568H16.44V129.568Z" fill="#797979" mask="url(#path-1-outside-1_339_7)"/>
<mask id="path-3-outside-2_339_7" maskUnits="userSpaceOnUse" x="6" y="33" width="98" height="92" fill="black">
<rect fill="white" x="6" y="33" width="98" height="92"/>
<path d="M25.856 34.4H59.904C68.7787 34.4 76.3733 35.8933 82.688 38.88C89.088 41.8667 93.9093 46.1333 97.152 51.68C100.48 57.1413 102.144 63.5413 102.144 70.88C102.144 81.2907 99.84 90.5067 95.232 98.528C90.624 106.549 84.096 112.821 75.648 117.344C67.2853 121.781 57.5573 124 46.464 124H7.936L25.856 34.4ZM46.72 115.808C56.0213 115.808 64.128 113.931 71.04 110.176C78.0373 106.336 83.3707 101.045 87.04 94.304C90.7947 87.5627 92.672 79.8827 92.672 71.264C92.672 62.3893 89.8133 55.392 84.096 50.272C78.3787 45.152 69.9733 42.592 58.88 42.592H33.536L18.944 115.808H46.72Z"/>
</mask>
<path d="M25.856 34.4H59.904C68.7787 34.4 76.3733 35.8933 82.688 38.88C89.088 41.8667 93.9093 46.1333 97.152 51.68C100.48 57.1413 102.144 63.5413 102.144 70.88C102.144 81.2907 99.84 90.5067 95.232 98.528C90.624 106.549 84.096 112.821 75.648 117.344C67.2853 121.781 57.5573 124 46.464 124H7.936L25.856 34.4ZM46.72 115.808C56.0213 115.808 64.128 113.931 71.04 110.176C78.0373 106.336 83.3707 101.045 87.04 94.304C90.7947 87.5627 92.672 79.8827 92.672 71.264C92.672 62.3893 89.8133 55.392 84.096 50.272C78.3787 45.152 69.9733 42.592 58.88 42.592H33.536L18.944 115.808H46.72Z" fill="white"/>
<path d="M25.856 34.4V33.4H25.0362L24.8754 34.2039L25.856 34.4ZM82.688 38.88L82.2604 39.784L82.2651 39.7862L82.688 38.88ZM97.152 51.68L96.2887 52.1847L96.2933 52.1926L96.2981 52.2004L97.152 51.68ZM95.232 98.528L94.3649 98.0299L94.3649 98.0299L95.232 98.528ZM75.648 117.344L76.1167 118.227L76.12 118.226L75.648 117.344ZM7.936 124L6.95542 123.804L6.7162 125H7.936V124ZM71.04 110.176L71.5173 111.055L71.5211 111.053L71.04 110.176ZM87.04 94.304L86.1663 93.8174L86.1617 93.8259L87.04 94.304ZM84.096 50.272L83.4289 51.0169L83.4289 51.0169L84.096 50.272ZM33.536 42.592V41.592H32.7156L32.5553 42.3965L33.536 42.592ZM18.944 115.808L17.9633 115.613L17.725 116.808H18.944V115.808ZM25.856 35.4H59.904V33.4H25.856V35.4ZM59.904 35.4C68.6695 35.4 76.1105 36.8752 82.2604 39.784L83.1156 37.976C76.6362 34.9114 68.8878 33.4 59.904 33.4V35.4ZM82.2651 39.7862C88.5 42.6958 93.1588 46.8309 96.2887 52.1847L98.0153 51.1753C94.6599 45.4358 89.676 41.0375 83.1109 37.9738L82.2651 39.7862ZM96.2981 52.2004C99.5171 57.4829 101.144 63.6973 101.144 70.88H103.144C103.144 63.3854 101.443 56.7997 98.0059 51.1596L96.2981 52.2004ZM101.144 70.88C101.144 81.1382 98.8753 90.1784 94.3649 98.0299L96.0991 99.0261C100.805 90.8349 103.144 81.4431 103.144 70.88H101.144ZM94.3649 98.0299C89.8536 105.883 83.4653 112.025 75.176 116.462L76.12 118.226C84.7268 113.618 91.3944 107.216 96.0991 99.0261L94.3649 98.0299ZM75.1793 116.461C66.9839 120.809 57.422 123 46.464 123V125C57.6926 125 67.5867 122.753 76.1167 118.227L75.1793 116.461ZM46.464 123H7.936V125H46.464V123ZM8.91658 124.196L26.8366 34.5961L24.8754 34.2039L6.95542 123.804L8.91658 124.196ZM46.72 116.808C56.1576 116.808 64.4342 114.902 71.5173 111.055L70.5627 109.297C63.8218 112.959 55.885 114.808 46.72 114.808V116.808ZM71.5211 111.053C78.6792 107.124 84.1537 101.698 87.9183 94.7821L86.1617 93.8259C82.5876 100.392 77.3955 105.548 70.5589 109.299L71.5211 111.053ZM87.9136 94.7906C91.7605 87.8837 93.672 80.0327 93.672 71.264H91.672C91.672 79.7327 89.8288 87.2417 86.1664 93.8174L87.9136 94.7906ZM93.672 71.264C93.672 62.154 90.7262 54.8671 84.7631 49.527L83.4289 51.0169C88.9004 55.9168 91.672 62.6247 91.672 71.264H93.672ZM84.7631 49.527C78.7952 44.1827 70.1113 41.592 58.88 41.592V43.592C69.8353 43.592 77.9621 46.1213 83.4289 51.0169L84.7631 49.527ZM58.88 41.592H33.536V43.592H58.88V41.592ZM32.5553 42.3965L17.9633 115.613L19.9247 116.003L34.5167 42.7875L32.5553 42.3965ZM18.944 116.808H46.72V114.808H18.944V116.808Z" fill="#797979" mask="url(#path-3-outside-2_339_7)"/>
</svg>


