<svg xmlns="http://www.w3.org/2000/svg" width="412" height="453" fill="none"><path stroke="#F70" stroke-width="7" d="M77.5 51.5h162v161h-162zM246.5 51.5h162v161h-162zM246.5 218.5h162v161h-162z"/><mask id="a" width="113" height="94" x="100" y="89" fill="#000" maskUnits="userSpaceOnUse"><path fill="#fff" d="M100 89h113v94H100z"/><path d="M150.062 134.812q0 14.314-1.562 23.5-1.563 9.126-4.875 14.376-3.25 5.25-8.125 7.25-4.875 1.937-11.312 1.937-3.688 0-7.626-.063a121 121 0 0 1-7.187-.312q-1.938-.125-3.813-.25l-3.624-.25V91.375l3.5-.25q1.75-.125 3.562-.25 3.063-.25 6.688-.312 3.687-.063 7-.063 6.75 0 11.874 1.625 5.188 1.563 8.626 6.375 3.5 4.813 5.187 13.438t1.687 22.874m-11.374.876q0-11.5-.938-18.563T135 106.25q-1.75-3.813-4.188-5.062-2.375-1.314-5.312-1.313-1.812 0-3.938.063-2.061.062-4 .187a807 807 0 0 0-4.5.25v71.687l2 .126 2.126.124a92 92 0 0 0 3.937.188q2.187.063 4.25.062 2.938 0 5.437-1.812t4.25-6.125q1.688-4.25 2.626-11.313 1-7.124 1-17.624m72.624 35.937V181h-42V91.375h42v9.375h-30.874v29.312h27.687v9.313h-27.687v32.25z"/></mask><path fill="#fff" d="M150.062 134.812q0 14.314-1.562 23.5-1.563 9.126-4.875 14.376-3.25 5.25-8.125 7.25-4.875 1.937-11.312 1.937-3.688 0-7.626-.063a121 121 0 0 1-7.187-.312q-1.938-.125-3.813-.25l-3.624-.25V91.375l3.5-.25q1.75-.125 3.562-.25 3.063-.25 6.688-.312 3.687-.063 7-.063 6.75 0 11.874 1.625 5.188 1.563 8.626 6.375 3.5 4.813 5.187 13.438t1.687 22.874m-11.374.876q0-11.5-.938-18.563T135 106.25q-1.75-3.813-4.188-5.062-2.375-1.314-5.312-1.313-1.812 0-3.938.063-2.061.062-4 .187a807 807 0 0 0-4.5.25v71.687l2 .126 2.126.124a92 92 0 0 0 3.937.188q2.187.063 4.25.062 2.938 0 5.437-1.812t4.25-6.125q1.688-4.25 2.626-11.313 1-7.124 1-17.624m72.624 35.937V181h-42V91.375h42v9.375h-30.874v29.312h27.687v9.313h-27.687v32.25z"/><path fill="#fff" d="m148.5 158.312.986.169v-.001zm-4.875 14.376-.846-.534-.004.007zm-8.125 7.25.369.929.011-.004zm-18.938 1.874-.016 1h.001zm-7.187-.312.075-.997-.011-.001zm-3.813-.25-.068.998h.002zm-3.624-.25h-1v.933l.931.065zm0-89.625-.072-.998-.928.067v.931zm7.062-.5.069.998.012-.001zm6.688-.312-.017-1h-.001zm18.874 1.562-.302.953.007.002.007.002zm8.626 6.375-.814.581.005.007zM135 106.25l-.909.417.006.012zm-4.188-5.062-.483.875.013.007.014.007zm-9.25-1.25-.029-1h-.001zm-4 .187.053.999.012-.001zm-4.5.25-.058-.998-.942.055v.943zm0 71.687h-1v.94l.938.059zm2 .126-.062.998h.004zm2.126.124.071-.997-.013-.001zm17.874-7.687.927.376.003-.007zm2.626-11.313-.991-.138-.001.007zm11.374-18.5c0 9.512-.519 17.284-1.548 23.333l1.972.335c1.055-6.201 1.576-14.096 1.576-23.668zm-1.548 23.332c-1.029 6.011-2.622 10.662-4.735 14.01l1.692 1.067c2.304-3.652 3.961-8.585 5.015-14.74zm-4.739 14.017c-2.076 3.353-4.632 5.611-7.655 6.851l.76 1.851c3.477-1.427 6.337-4.002 8.595-7.649zm-7.644 6.847c-3.109 1.236-6.75 1.867-10.943 1.867v2c4.39 0 8.29-.661 11.681-2.008zm-10.943 1.867q-3.68 0-7.61-.062l-.031 1.999q3.945.063 7.641.063zm-7.609-.062a122 122 0 0 1-7.129-.31l-.15 1.994q3.346.253 7.246.315zm-7.14-.311a1767 1767 0 0 1-3.81-.25l-.133 1.996q1.876.125 3.815.25zm-3.808-.25-.028-.002-.028-.002-.029-.001-.028-.002-.028-.002-.029-.002-.028-.002-.028-.002-.029-.002-.028-.002-.028-.002-.029-.002-.028-.002-.028-.002-.029-.002-.028-.002-.028-.002-.028-.002-.029-.002-.028-.002-.028-.002-.029-.002-.028-.002-.028-.002-.029-.001-.028-.002-.028-.002-.029-.002-.028-.002-.028-.002-.029-.002-.028-.002-.028-.002-.029-.002-.028-.002-.028-.002-.029-.002-.028-.002-.028-.002-.029-.002-.028-.002-.028-.002-.028-.002-.029-.002-.028-.002-.028-.001-.029-.002-.028-.002-.028-.002-.029-.002-.028-.002-.028-.002-.029-.002-.028-.002-.028-.002-.029-.002-.028-.002-.028-.002-.029-.002-.028-.002-.028-.002-.029-.002-.028-.002-.028-.002-.057-.004-.056-.003-.057-.004-.057-.004-.056-.004-.057-.004-.057-.004-.056-.004-.057-.004-.057-.004-.056-.004-.057-.004-.057-.003-.056-.004-.057-.004-.056-.004-.029-.002-.028-.002-.028-.002-.029-.002-.028-.002-.028-.002-.029-.002-.028-.002-.028-.002-.029-.002-.028-.002-.028-.002-.029-.002-.028-.001-.028-.002-.029-.002-.014-.001-.014-.001-.014-.001-.014-.001-.014-.001-.015-.001-.014-.001-.014-.001-.014-.001-.014-.001-.014-.001-.014-.001-.015-.001-.014-.001-.014-.001-.014-.001-.014-.001-.014-.001-.015-.001-.014-.001-.014-.001-.014-.001-.014-.001-.014-.001-.015-.001-.014-.001-.014-.001-.014-.001-.014-.001-.014-.001-.015-.001-.014-.001-.137 1.996.113.007.113.008.114.008.113.008.113.008.113.008.114.007.113.008.113.008.114.008.113.008.113.007.113.008.114.008.113.008.113.008.113.007.114.008.113.008.113.008.114.008.113.008.113.007.113.008.114.008.113.008.113.008.114.007.113.008.113.008.113.008.114.008zm-2.693.748V91.375h-2V181zm-.929-88.627.054-.004.055-.004.219-.016.055-.004.054-.004.055-.004.055-.004.054-.004.219-.015.109-.008.055-.004.219-.016.055-.003.054-.004.055-.004.055-.004.054-.004.219-.016.055-.004.437-.03.438-.032.437-.031.438-.031-.143-1.996-.054.004-.055.004-.219.016-.055.004-.054.004-.055.004-.055.004-.054.004-.219.015-.109.008-.055.004-.219.016-.055.003-.054.004-.055.004-.055.004-.054.004-.219.016-.055.004-.437.03-.438.032-.437.031-.438.031zm3.5-.25q1.748-.126 3.56-.25l-.138-1.996q-1.813.126-3.565.25zm3.572-.251q3.025-.247 6.624-.31l-.035-2a106 106 0 0 0-6.751.316zm6.623-.31q3.68-.062 6.984-.062v-2q-3.323 0-7.017.063zm6.984-.062c4.422 0 8.275.533 11.572 1.578l.605-1.906c-3.536-1.121-7.6-1.672-12.177-1.672zm11.586 1.582c3.227.972 5.924 2.954 8.1 6l1.627-1.163c-2.408-3.371-5.46-5.64-9.15-6.751zm8.105 6.006c2.216 3.048 3.905 7.372 5.015 13.042l1.962-.385c-1.14-5.83-2.91-10.464-5.36-13.833zm5.015 13.042c1.107 5.66 1.668 13.213 1.668 22.682h2c0-9.53-.563-17.227-1.706-23.067zm-7.706 23.558c0-7.688-.313-13.924-.947-18.695l-1.982.264c.616 4.646.929 10.785.929 18.431zm-.947-18.695c-.63-4.751-1.565-8.494-2.838-11.172l-1.806.858c1.143 2.405 2.042 5.912 2.662 10.578zm-2.832-11.16c-1.213-2.643-2.734-4.558-4.64-5.535l-.913 1.779c1.344.69 2.615 2.15 3.735 4.59zm-4.613-5.521c-1.743-.963-3.683-1.437-5.796-1.437v2c1.804 0 3.406.401 4.829 1.188zm-5.796-1.437q-1.83 0-3.967.063l.059 1.999a135 135 0 0 1 3.908-.062zm-3.968.063q-2.078.063-4.034.19l.129 1.995a114 114 0 0 1 3.966-.186zm-4.022.188-2.315.125.11 1.997q1.124-.062 2.31-.124zm-2.315.125q-1.127.063-2.191.126l.117 1.996 2.184-.125zm-3.133 1.124v71.687h2v-71.687zm.938 72.686.125.007.125.008.125.008.125.008.125.008.125.007.125.008.125.008.25.016.25.015.25.016.25.016.125-1.997-1-.062-.125-.008-.125-.008-.125-.007-.125-.008-.125-.008-.125-.008-.125-.008-.125-.008zm2.004.125.066.004.067.004.066.003.066.004.067.004.066.004.067.004.066.004.066.004.067.004.066.004.067.004.066.004.066.003.067.004.066.004.532.032.531.031.117-1.997-.265-.015-.266-.016-.266-.016-.265-.015-.033-.002-.034-.002-.033-.002-.033-.002-.033-.002-.033-.002-.034-.002-.033-.002-.033-.002-.033-.002-.034-.002-.033-.002-.033-.002-.033-.002-.033-.002-.034-.002-.033-.001-.033-.002-.033-.002-.033-.002-.034-.002-.033-.002-.033-.002-.033-.002-.033-.002-.034-.002-.033-.002-.033-.002-.033-.002-.033-.002-.034-.002-.033-.002zm2.112.124q1.776.127 3.98.19l.058-2a92 92 0 0 1-3.895-.185zm3.98.19q2.202.063 4.279.062v-2q-2.047 0-4.221-.062zm4.279.062c2.18 0 4.196-.677 6.024-2.002l-1.173-1.62c-1.506 1.092-3.115 1.622-4.851 1.622zm6.024-2.002c1.877-1.361 3.386-3.592 4.59-6.559l-1.853-.752c-1.13 2.783-2.454 4.635-3.91 5.691zm4.593-6.566c1.167-2.94 2.056-6.8 2.687-11.55l-1.983-.263c-.619 4.667-1.48 8.348-2.563 11.075zm2.686-11.543c.675-4.811 1.01-10.736 1.01-17.763h-2c0 6.972-.333 12.797-.991 17.486zm72.634 18.174h1v-1h-1zm0 9.375v1h1v-1zm-42 0h-1v1h1zm0-89.625v-1h-1v1zm42 0h1v-1h-1zm0 9.375v1h1v-1zm-30.874 0v-1h-1v1zm0 29.312h-1v1h1zm27.687 0h1v-1h-1zm0 9.313v1h1v-1zm-27.687 0v-1h-1v1zm0 32.25h-1v1h1zm29.874 0V181h2v-9.375zm1 8.375h-42v2h42zm-41 1V91.375h-2V181zm-1-88.625h42v-2h-42zm41-1v9.375h2v-9.375zm1 8.375h-30.874v2h30.874zm-31.874 1v29.312h2V100.75zm1 30.312h27.687v-2h-27.687zm26.687-1v9.313h2v-9.313zm1 8.313h-27.687v2h27.687zm-28.687 1v32.25h2v-32.25zm1 33.25h30.874v-2h-30.874z" mask="url(#a)"/><mask id="b" width="115" height="94" x="265" y="89" fill="#000" maskUnits="userSpaceOnUse"><path fill="#fff" d="M265 89h115v94H265z"/><path d="M311.125 91.375v11.313L278.188 171.5h31.624v9.5h-43v-11.25l33-68.875H269.75v-9.5zm67.5 43.813q0 11.75-1.25 20.562-1.187 8.75-4.187 14.562-3 5.813-8.188 8.688-5.187 2.875-13.125 2.875T338.75 179t-8.188-8.688-4.25-14.562q-1.187-8.812-1.187-20.562 0-11.25 1.187-19.626 1.25-8.436 4.25-14 3-5.562 8.188-8.312 5.187-2.75 13.125-2.75T365 93.25t8.188 8.312q3 5.564 4.187 14 1.25 8.376 1.25 19.626m-11.375.624q0-10.624-.75-17.5-.75-6.936-2.562-11.062-1.75-4.062-4.75-5.688-2.938-1.686-7.313-1.687-4.375 0-7.313 1.687-2.875 1.626-4.687 5.688-3.375 7.812-3.375 28.562 0 20.438 3.375 28.626 1.813 4.375 4.687 6.25 2.938 1.874 7.313 1.874t7.313-1.874q3-1.875 4.75-6.25 1.812-4.314 2.562-11.25.75-7 .75-17.376"/></mask><path fill="#fff" d="M311.125 91.375v11.313L278.188 171.5h31.624v9.5h-43v-11.25l33-68.875H269.75v-9.5zm67.5 43.813q0 11.75-1.25 20.562-1.187 8.75-4.187 14.562-3 5.813-8.188 8.688-5.187 2.875-13.125 2.875T338.75 179t-8.188-8.688-4.25-14.562q-1.187-8.812-1.187-20.562 0-11.25 1.187-19.626 1.25-8.436 4.25-14 3-5.562 8.188-8.312 5.187-2.75 13.125-2.75T365 93.25t8.188 8.312q3 5.564 4.187 14 1.25 8.376 1.25 19.626m-11.375.624q0-10.624-.75-17.5-.75-6.936-2.562-11.062-1.75-4.062-4.75-5.688-2.938-1.686-7.313-1.687-4.375 0-7.313 1.687-2.875 1.626-4.687 5.688-3.375 7.812-3.375 28.562 0 20.438 3.375 28.626 1.813 4.375 4.687 6.25 2.938 1.874 7.313 1.874t7.313-1.874q3-1.875 4.75-6.25 1.812-4.314 2.562-11.25.75-7 .75-17.376"/><path fill="#fff" d="M311.125 91.375h1v-1h-1zm0 11.313.902.431.098-.205v-.226zM278.188 171.5l-.902-.432-.686 1.432h1.588zm31.624 0h1v-1h-1zm0 9.5v1h1v-1zm-43 0h-1v1h1zm0-11.25-.901-.432-.099.205v.227zm33-68.875.902.432.686-1.432h-1.588zm-30.062 0h-1v1h1zm0-9.5v-1h-1v1zm40.375 0v11.313h2V91.375zm.098 10.881-32.937 68.812 1.803.864 32.938-68.813zM278.188 172.5h31.624v-2h-31.624zm30.624-1v9.5h2v-9.5zm1 8.5h-43v2h43zm-42 1v-11.25h-2V181zm-.098-10.818 33-68.875-1.803-.864-33 68.875zm32.098-70.307H269.75v2h30.062zm-29.062 1v-9.5h-2v9.5zm-1-8.5h41.375v-2H269.75zm107.625 63.375-.99-.14-.001.006zm-51.063 0-.991.134.002.007zm0-40.188-.989-.146-.001.006zm51.063 0-.99.14.001.008zm-10.875 2.75-.994.108v.001zm-2.562-11.062-.919.396.003.006zm-4.75-5.688-.499.868.011.006.011.006zm-14.626 0 .493.871.006-.003zm-4.687 5.688-.913-.407-.005.01zm0 57.188-.925.381.001.001zm4.687 6.25-.546.837.008.005zm14.626 0-.531-.849-.008.006zm4.75-6.25-.922-.388-.004.008-.003.008zm2.562-11.25.994.107v-.001zm11.125-18q-.001 11.698-1.24 20.422l1.98.28q1.262-8.901 1.26-20.702zm-1.241 20.428c-.781 5.757-2.152 10.493-4.085 14.238l1.777.917c2.067-4.005 3.488-8.977 4.29-14.887zm-4.085 14.238c-1.919 3.718-4.516 6.46-7.784 8.271l.97 1.75c3.648-2.023 6.51-5.072 8.591-9.104zm-7.784 8.271c-3.268 1.812-7.463 2.75-12.64 2.75v2c5.406 0 9.961-.978 13.61-3zm-12.64 2.75c-5.177 0-9.372-.938-12.64-2.75l-.97 1.75c3.649 2.022 8.204 3 13.61 3zm-12.64-2.75c-3.268-1.811-5.865-4.553-7.784-8.271l-1.777.917c2.081 4.032 4.943 7.081 8.591 9.104zm-7.784-8.271c-1.934-3.748-3.326-8.486-4.149-14.245l-1.979.282c.844 5.908 2.285 10.878 4.351 14.88zm-4.147-14.238q-1.178-8.727-1.179-20.428h-2q-.001 11.798 1.196 20.696zm-1.179-20.428q.001-11.2 1.178-19.485l-1.981-.281q-1.198 8.465-1.197 19.766zm1.177-19.479c.822-5.548 2.211-10.094 4.141-13.672l-1.761-.949c-2.07 3.839-3.514 8.626-4.359 14.328zm4.141-13.672c1.913-3.548 4.505-6.17 7.775-7.904l-.936-1.766c-3.647 1.932-6.513 4.852-8.6 8.721zm7.775-7.904c3.273-1.734 7.474-2.633 12.657-2.633v-2c-5.4 0-9.949.934-13.593 2.867zm12.657-2.633c5.183 0 9.384.899 12.657 2.633l.936-1.766c-3.644-1.933-8.193-2.867-13.593-2.867zm12.657 2.633c3.27 1.734 5.862 4.356 7.775 7.904l1.761-.949c-2.087-3.869-4.953-6.788-8.6-8.721zm7.775 7.904c1.928 3.575 3.297 8.119 4.078 13.665l1.98-.279c-.803-5.704-2.225-10.493-4.297-14.335zm4.079 13.673c.824 5.522 1.239 12.012 1.239 19.478h2q.002-11.304-1.261-19.773zm-8.136 20.102c0-7.102-.25-12.975-.756-17.608l-1.988.217c.494 4.534.744 10.327.744 17.391zm-.756-17.607c-.505-4.677-1.375-8.477-2.641-11.357l-1.831.804c1.151 2.62 1.989 6.195 2.484 10.768zm-2.638-11.351c-1.229-2.853-2.943-4.952-5.192-6.171l-.953 1.759c1.751.948 3.204 2.64 4.308 5.204zm-5.17-6.159c-2.148-1.233-4.769-1.82-7.811-1.82v2c2.792 0 5.046.539 6.814 1.555zm-7.811-1.82c-3.042 0-5.663.587-7.811 1.82l.997 1.735c1.768-1.016 4.022-1.555 6.814-1.555zm-7.805 1.817c-2.158 1.22-3.843 3.314-5.108 6.151l1.826.814c1.151-2.579 2.591-4.277 4.267-5.224zm-5.113 6.161c-2.341 5.419-3.457 15.132-3.457 28.959h2c0-13.838 1.134-23.168 3.293-28.165zm-3.457 28.959c0 13.629 1.118 23.349 3.45 29.007l1.85-.763c-2.168-5.258-3.3-14.622-3.3-28.244zm3.451 29.008c1.257 3.034 2.927 5.31 5.065 6.705l1.093-1.675c-1.695-1.105-3.151-2.996-4.31-5.795zm5.073 6.71c2.156 1.376 4.792 2.032 7.851 2.032v-2c-2.775 0-5.013-.593-6.774-1.717zm7.851 2.032c3.059 0 5.695-.656 7.851-2.032l-1.077-1.685c-1.761 1.124-3.999 1.717-6.774 1.717zm7.842-2.027c2.232-1.394 3.929-3.677 5.149-6.726l-1.857-.743c-1.114 2.784-2.583 4.668-4.351 5.774zm5.142-6.71c1.26-2.997 2.129-6.851 2.635-11.53l-1.988-.215c-.494 4.571-1.333 8.217-2.49 10.97zm2.635-11.531c.505-4.714.756-10.544.756-17.482h-2c0 6.897-.249 12.65-.744 17.269z" mask="url(#b)"/><mask id="c" width="106" height="94" x="273" y="261" fill="#000" maskUnits="userSpaceOnUse"><path fill="#fff" d="M273 261h106v94H273z"/><path d="M320.625 288.625q0 10-2.937 16.375-2.939 6.375-9.813 9.062l17.5 38.938h-12.25l-16.437-37.125h-11.376V353h-11.124v-89.625q1.625-.125 3.312-.25 1.688-.125 3.5-.25 3.063-.25 6.938-.313 3.937-.062 7.874-.062 7.313 0 12.063 1.812 4.813 1.814 7.687 5.313 2.813 3.438 3.938 8.313 1.125 4.812 1.125 10.687m-11.375.875q0-9.312-2.562-13.5-2.563-4.25-9.313-4.25-5.375 0-8.75.375-1.875.25-3.313.375v34.062h12.063q2.688 0 4.813-.687 2.187-.75 3.812-2.625 3.25-3.625 3.25-13.75m68.688 38q0 7.938-1.813 13.062-1.812 5.126-5.125 8.063t-8 4.125q-4.687 1.125-10.438 1.125-3.062 0-7.312-.5-4.187-.5-7.562-1.375v-9.375q3 .75 6.937 1.375 4 .562 9.187.562 6.688 0 9.688-3.812 3-3.874 3-11.938 0-8.75-2.25-12.437-2.25-3.75-8.125-5-5.375-1.125-9.063-2.875-3.687-1.812-6-4.625-4.5-5.5-4.5-16.687 0-6.876 1.813-11.563 1.875-4.688 5.313-7.625 3.374-2.937 7.937-4.188 4.625-1.312 10.125-1.312 3.25 0 7 .562t6.625 1.376v9.312q-3.375-.75-7.5-1.312-4.062-.563-7.375-.563-5.313 0-8.938 3.437-3.624 3.438-3.624 10.5 0 4.938.687 7.938.75 2.937 2.875 4.562 2.125 1.563 6.312 2.438 4.626.938 8.313 2.625a17.84 17.84 0 0 1 6.313 4.625q2.625 3 4.062 7.75t1.438 11.75"/></mask><path fill="#fff" d="M320.625 288.625q0 10-2.937 16.375-2.939 6.375-9.813 9.062l17.5 38.938h-12.25l-16.437-37.125h-11.376V353h-11.124v-89.625q1.625-.125 3.312-.25 1.688-.125 3.5-.25 3.063-.25 6.938-.313 3.937-.062 7.874-.062 7.313 0 12.063 1.812 4.813 1.814 7.687 5.313 2.813 3.438 3.938 8.313 1.125 4.812 1.125 10.687m-11.375.875q0-9.312-2.562-13.5-2.563-4.25-9.313-4.25-5.375 0-8.75.375-1.875.25-3.313.375v34.062h12.063q2.688 0 4.813-.687 2.187-.75 3.812-2.625 3.25-3.625 3.25-13.75m68.688 38q0 7.938-1.813 13.062-1.812 5.126-5.125 8.063t-8 4.125q-4.687 1.125-10.438 1.125-3.062 0-7.312-.5-4.187-.5-7.562-1.375v-9.375q3 .75 6.937 1.375 4 .562 9.187.562 6.688 0 9.688-3.812 3-3.874 3-11.938 0-8.75-2.25-12.437-2.25-3.75-8.125-5-5.375-1.125-9.063-2.875-3.687-1.812-6-4.625-4.5-5.5-4.5-16.687 0-6.876 1.813-11.563 1.875-4.688 5.313-7.625 3.374-2.937 7.937-4.188 4.625-1.312 10.125-1.312 3.25 0 7 .562t6.625 1.376v9.312q-3.375-.75-7.5-1.312-4.062-.563-7.375-.563-5.313 0-8.938 3.437-3.624 3.438-3.624 10.5 0 4.938.687 7.938.75 2.937 2.875 4.562 2.125 1.563 6.312 2.438 4.626.938 8.313 2.625a17.84 17.84 0 0 1 6.313 4.625q2.625 3 4.062 7.75t1.438 11.75"/><path fill="#fff" d="m307.875 314.062-.364-.931-.979.383.431.958zm17.5 38.938v1h1.546l-.634-1.41zm-12.25 0-.914.405.263.595h.651zm-16.437-37.125.914-.405-.264-.595h-.65zm-11.376 0v-1h-1v1zm0 37.125v1h1v-1zm-11.124 0h-1v1h1zm0-89.625-.077-.997-.923.071v.926zm6.812-.5.069.998.012-.001zm6.938-.313-.016-.999h-.001zm19.937 1.75-.357.935.005.001zm7.687 5.313.774-.633-.001-.002zm3.938 8.313-.974.224v.003zM306.688 276l-.857.516.004.006zm-18.063-3.875-.11-.994-.011.001-.011.002zm-3.313.375-.086-.996-.914.079v.917zm0 34.062h-1v1h1zm16.876-.687.307.951.009-.002.008-.003zM306 303.25l-.745-.668-.005.007-.006.006zm13.625-14.625c0 6.579-.968 11.881-2.846 15.957l1.817.836c2.039-4.424 3.029-10.039 3.029-16.793zm-2.846 15.957c-1.844 4.002-4.912 6.846-9.268 8.549l.728 1.863c4.811-1.881 8.284-5.078 10.357-9.576zm-9.816 9.89 17.5 38.938 1.824-.82-17.5-38.937zM325.375 352h-12.25v2h12.25zm-11.336.595-16.437-37.125-1.829.81 16.438 37.125zm-17.351-37.72h-11.376v2h11.376zm-12.376 1V353h2v-37.125zm1 36.125h-11.124v2h11.124zm-10.124 1v-89.625h-2V353zm-.924-88.628q1.624-.124 3.31-.25l-.148-1.994q-1.689.125-3.315.25zm3.31-.25q1.685-.125 3.495-.249l-.138-1.996q-1.815.125-3.505.251zm3.507-.25q3.023-.247 6.873-.31l-.033-1.999q-3.9.062-7.002.315zm6.872-.31q3.93-.062 7.859-.062v-2q-3.945 0-7.89.063zm7.859-.062c4.803 0 8.692.596 11.706 1.747l.714-1.869c-3.319-1.266-7.472-1.878-12.42-1.878zm11.711 1.748c3.066 1.155 5.476 2.831 7.267 5.012l1.545-1.27c-2.042-2.486-4.758-4.352-8.108-5.613zm7.266 5.01c1.766 2.159 3.017 4.785 3.737 7.904l1.948-.449c-.78-3.381-2.154-6.296-4.138-8.721zm3.737 7.907c.73 3.121 1.099 6.606 1.099 10.46h2c0-3.979-.381-7.62-1.151-10.915zM310.25 289.5c0-6.254-.852-10.986-2.71-14.022l-1.705 1.044c1.559 2.548 2.415 6.815 2.415 12.978zm-2.706-14.016c-1.952-3.238-5.46-4.734-10.169-4.734v2c4.291 0 6.991 1.337 8.456 3.766zm-10.169-4.734c-3.602 0-6.559.125-8.86.381l.22 1.988c2.199-.244 5.075-.369 8.64-.369zm-8.882.384a74 74 0 0 1-3.267.37l.173 1.992a75 75 0 0 0 3.358-.38zm-4.181 1.366v34.062h2V272.5zm1 35.062h12.063v-2h-12.063zm12.063 0c1.876 0 3.586-.239 5.12-.736l-.615-1.902c-1.3.42-2.797.638-4.505.638zm5.137-.741c1.637-.561 3.053-1.543 4.244-2.916l-1.512-1.31c-.976 1.127-2.102 1.895-3.381 2.334zm4.233-2.903c1.234-1.377 2.102-3.302 2.666-5.688.565-2.392.839-5.308.839-8.73h-2c0 3.328-.268 6.078-.786 8.27-.519 2.197-1.276 3.772-2.209 4.812zM363 352.75l.233.972.013-.003zm-17.75.625-.119.993h.002zM337.688 352h-1v.774l.749.194zm0-9.375.242-.97-1.242-.311v1.281zm6.937 1.375-.157.988.009.001.009.001zm18.875-3.25.786.618.005-.006zm.75-24.375-.858.515.004.006zm-8.125-5 .208-.978-.003-.001zm-9.063-2.875-.441.898.013.005zm-6-4.625-.773.633.001.002zm-2.687-28.25-.929-.371-.004.01zm5.313-7.625.649.76.007-.006zm7.937-4.188.264.965.009-.002zm23.75.626h1v-.757l-.728-.206zm0 9.312-.217.976 1.217.271v-1.247zm-7.5-1.312-.137.99h.002zm-19.25 21.312-.975.223.003.012.003.012zm2.875 4.562-.607.795.007.006.008.005zm6.312 2.438-.204.979.006.001zm8.313 2.625-.416.909.013.006zm10.813 24.125c0 5.226-.598 9.457-1.756 12.729l1.886.667c1.259-3.561 1.87-8.038 1.87-13.396zm-1.756 12.729c-1.164 3.293-2.79 5.825-4.845 7.648l1.326 1.496c2.361-2.093 4.153-4.937 5.405-8.477zm-4.845 7.648c-2.078 1.843-4.598 3.148-7.583 3.904l.492 1.938c3.265-.827 6.079-2.272 8.417-4.346zm-7.57 3.901c-3.036.728-6.435 1.097-10.205 1.097v2c3.898 0 7.457-.381 10.671-1.153zm-10.205 1.097q-2.984.001-7.195-.493l-.234 1.986c2.858.336 5.337.507 7.429.507zm-7.193-.493q-4.133-.494-7.431-1.35l-.501 1.936q3.452.894 7.694 1.4zm-6.681-.382v-9.375h-2V352zm-1.243-8.405q3.053.763 7.023 1.393l.314-1.976q-3.905-.62-6.852-1.357zm7.041 1.395q4.086.573 9.326.572v-2q-5.134 0-9.048-.552zm9.326.572c4.642 0 8.219-1.328 10.474-4.194l-1.572-1.236c-1.745 2.218-4.627 3.43-8.902 3.43zm10.479-4.2c2.198-2.84 3.209-7.084 3.209-12.55h-2c0 5.285-.989 8.999-2.791 11.326zm3.209-12.55c0-5.863-.744-10.25-2.396-12.958l-1.708 1.042c1.348 2.208 2.104 6.113 2.104 11.916zm-2.393-12.951c-1.689-2.817-4.691-4.595-8.774-5.464l-.416 1.956c3.75.798 6.165 2.353 7.476 4.536zm-8.777-5.465c-3.531-.739-6.471-1.676-8.839-2.799l-.857 1.806c2.549 1.21 5.65 2.19 9.286 2.951zm-8.826-2.793c-2.347-1.154-4.229-2.611-5.669-4.363l-1.545 1.27c1.643 1.998 3.762 3.624 6.331 4.887zm-5.668-4.361c-2.79-3.411-4.274-8.702-4.274-16.054h-2c0 7.564 1.517 13.398 4.727 17.32zm-4.274-16.054c0-4.503.595-8.226 1.746-11.202l-1.866-.722c-1.266 3.274-1.88 7.259-1.88 11.924zm1.741-11.192c1.197-2.992 2.879-5.394 5.034-7.236l-1.299-1.52c-2.429 2.075-4.288 4.756-5.591 8.014zm5.041-7.242c2.13-1.854 4.64-3.181 7.545-3.977l-.528-1.929c-3.178.871-5.96 2.335-8.33 4.398zm7.554-3.979c2.983-.847 6.265-1.275 9.852-1.275v-2c-3.746 0-7.214.447-10.398 1.35zm9.852-1.275q3.164 0 6.852.551l.296-1.977q-3.812-.574-7.148-.574zm6.852.551q3.701.557 6.501 1.349l.544-1.925q-2.95-.833-6.749-1.401zm5.773.387v9.312h2v-9.312zm1.217 8.336q-3.423-.76-7.582-1.327l-.27 1.981q4.091.558 7.418 1.298zm-7.58-1.327q-4.116-.571-7.512-.572v2q3.229-.001 7.238.553zm-7.512-.572c-3.78 0-7.011 1.232-9.626 3.712l1.377 1.451c2.218-2.103 4.946-3.163 8.249-3.163zm-9.626 3.712c-2.686 2.547-3.936 6.359-3.936 11.225h2c0-4.549 1.166-7.738 3.313-9.774zm-3.936 11.225c0 3.328.23 6.058.712 8.161l1.95-.446c-.435-1.897-.662-4.459-.662-7.715zm.718 8.185c.548 2.146 1.618 3.872 3.237 5.11l1.214-1.589c-1.214-.929-2.061-2.244-2.513-4.015zm3.252 5.121c1.582 1.163 3.845 2.014 6.7 2.611l.409-1.958c-2.728-.57-4.673-1.344-5.925-2.264zm6.706 2.612c3.02.612 5.716 1.466 8.095 2.554l.832-1.818c-2.538-1.162-5.383-2.058-8.53-2.696zm8.108 2.56a16.84 16.84 0 0 1 5.963 4.369l1.505-1.318a18.84 18.84 0 0 0-6.662-4.881zm5.963 4.369c1.636 1.87 2.931 4.318 3.858 7.381l1.914-.58c-.99-3.27-2.403-5.989-4.267-8.119zm3.858 7.381c.921 3.043 1.395 6.855 1.395 11.46h2c0-4.728-.485-8.749-1.481-12.04z" mask="url(#c)"/><path fill="#fff" d="M89.835 266.4a21.3 21.3 0 0 1-6.28-.92q-3-.96-4.76-2.44l1.8-4.04q1.68 1.32 4.16 2.2t5.08.88q2.2 0 3.56-.48t2-1.28q.64-.84.64-1.88 0-1.28-.92-2.04-.921-.8-2.4-1.24-1.44-.48-3.24-.88a64 64 0 0 1-3.56-.92 17 17 0 0 1-3.24-1.4 7.3 7.3 0 0 1-2.36-2.32q-.92-1.44-.92-3.68 0-2.28 1.2-4.16 1.239-1.92 3.72-3.04 2.52-1.16 6.36-1.16 2.52 0 5 .64t4.32 1.84l-1.64 4.04a14.9 14.9 0 0 0-3.88-1.64q-2.001-.56-3.84-.56-2.16 0-3.52.52-1.32.52-1.96 1.36-.6.84-.6 1.92 0 1.28.88 2.08.92.76 2.36 1.2 1.48.44 3.28.88 1.8.4 3.56.92 1.8.52 3.24 1.36a6.46 6.46 0 0 1 2.36 2.28q.92 1.44.92 3.64 0 2.24-1.24 4.16-1.2 1.88-3.72 3.04-2.52 1.12-6.36 1.12m21.276-16.76h13.92v4.28h-13.92zm.4 12h15.8V266h-21v-28h20.44v4.36h-15.24zm21.597 4.36v-28h11.52q3.72 0 6.36 1.2 2.68 1.2 4.12 3.44t1.44 5.32-1.44 5.32q-1.44 2.2-4.12 3.4-2.64 1.16-6.36 1.16h-8.64l2.32-2.36V266zm18.32 0-7.08-10.16h5.56l7.12 10.16zm-13.12-9.96-2.32-2.48h8.4q3.44 0 5.16-1.48 1.76-1.48 1.76-4.12 0-2.68-1.76-4.12-1.72-1.44-5.16-1.44h-8.4l2.32-2.56zm9.759 58.96-12.24-28h5.64l10.92 25.32h-3.24l11.04-25.32h5.2l-12.2 28zm20.275 0v-28h5.2v28zm3.253 49.4q-3.2 0-5.96-1.04-2.72-1.08-4.76-3a14.1 14.1 0 0 1-3.12-4.6q-1.12-2.64-1.12-5.76t1.12-5.76 3.16-4.56a14 14 0 0 1 4.76-3q2.72-1.08 5.96-1.08 3.44 0 6.28 1.2a12.25 12.25 0 0 1 4.8 3.48l-3.36 3.16q-1.52-1.64-3.4-2.44-1.88-.84-4.08-.84t-4.04.72a9.6 9.6 0 0 0-3.16 2.04 9.7 9.7 0 0 0-2.08 3.12q-.72 1.8-.72 3.96t.72 3.96q.76 1.8 2.08 3.12a9.6 9.6 0 0 0 3.16 2.04q1.84.72 4.04.72t4.08-.8q1.88-.84 3.4-2.52l3.36 3.2q-1.96 2.28-4.8 3.48t-6.32 1.2m20.903-16.76h13.92v4.28h-13.92zm.4 12h15.8V364h-21v-28h20.44v4.36h-15.24zm30.276 4.76q-3.28 0-6.28-.92-3-.96-4.76-2.44l1.8-4.04q1.68 1.32 4.16 2.2a15.1 15.1 0 0 0 5.08.88q2.2 0 3.56-.48t2-1.28q.64-.84.64-1.88 0-1.28-.92-2.04-.92-.8-2.4-1.24-1.44-.48-3.24-.88a64 64 0 0 1-3.56-.92 17 17 0 0 1-3.24-1.4 7.3 7.3 0 0 1-2.36-2.32q-.92-1.44-.92-3.68 0-2.28 1.2-4.16 1.24-1.92 3.72-3.04 2.52-1.16 6.36-1.16 2.52 0 5 .64t4.32 1.84l-1.64 4.04a14.9 14.9 0 0 0-3.88-1.64q-2-.56-3.84-.56-2.16 0-3.52.52-1.32.52-1.96 1.36-.6.84-.6 1.92 0 1.28.88 2.08.92.76 2.36 1.2 1.48.44 3.28.88 1.8.4 3.56.92 1.8.52 3.24 1.36a6.44 6.44 0 0 1 2.36 2.28q.92 1.44.92 3.64 0 2.24-1.24 4.16-1.2 1.88-3.72 3.04-2.52 1.12-6.36 1.12"/></svg>